<mxfile host="app.diagrams.net" agent="Mozilla/5.0 (Windows NT 10.0; Win64; x64) AppleWebKit/537.36 (KHTML, like Gecko) Chrome/130.0.0.0 Safari/537.36" version="24.8.3">
  <diagram name="Página-1" id="OUuTRLx_6_Qfh0HOwhTm">
    <mxGraphModel dx="977" dy="505" grid="1" gridSize="10" guides="1" tooltips="1" connect="1" arrows="1" fold="1" page="1" pageScale="1" pageWidth="827" pageHeight="1169" math="0" shadow="0">
      <root>
        <mxCell id="0" />
        <mxCell id="1" parent="0" />
        <mxCell id="uFS48-7cLrAhZdvdfBst-1" value="" style="rounded=0;whiteSpace=wrap;html=1;fontStyle=1" parent="1" vertex="1">
          <mxGeometry x="111" y="60" width="1210" height="730" as="geometry" />
        </mxCell>
        <mxCell id="uFS48-7cLrAhZdvdfBst-2" style="rounded=0;orthogonalLoop=1;jettySize=auto;html=1;entryX=0;entryY=0.5;entryDx=0;entryDy=0;endArrow=none;endFill=0;exitX=1;exitY=0.3333333333333333;exitDx=0;exitDy=0;exitPerimeter=0;" parent="1" source="uFS48-7cLrAhZdvdfBst-3" target="uFS48-7cLrAhZdvdfBst-7" edge="1">
          <mxGeometry relative="1" as="geometry" />
        </mxCell>
        <mxCell id="uFS48-7cLrAhZdvdfBst-3" value="Cliente" style="shape=umlActor;verticalLabelPosition=bottom;verticalAlign=top;html=1;outlineConnect=0;" parent="1" vertex="1">
          <mxGeometry x="20" y="100" width="30" height="60" as="geometry" />
        </mxCell>
        <mxCell id="uFS48-7cLrAhZdvdfBst-4" style="edgeStyle=orthogonalEdgeStyle;rounded=0;orthogonalLoop=1;jettySize=auto;html=1;entryX=1;entryY=0.5;entryDx=0;entryDy=0;endArrow=open;endFill=0;exitX=0;exitY=0.5;exitDx=0;exitDy=0;dashed=1;dashPattern=8 8;" parent="1" source="uFS48-7cLrAhZdvdfBst-10" target="uFS48-7cLrAhZdvdfBst-7" edge="1">
          <mxGeometry relative="1" as="geometry">
            <Array as="points" />
          </mxGeometry>
        </mxCell>
        <mxCell id="uFS48-7cLrAhZdvdfBst-5" value="&amp;lt;&amp;lt; EXTEND &amp;gt;&amp;gt;" style="edgeLabel;html=1;align=center;verticalAlign=middle;resizable=0;points=[];" parent="uFS48-7cLrAhZdvdfBst-4" vertex="1" connectable="0">
          <mxGeometry x="-0.1829" relative="1" as="geometry">
            <mxPoint x="-4" y="-13" as="offset" />
          </mxGeometry>
        </mxCell>
        <mxCell id="uFS48-7cLrAhZdvdfBst-6" value="" style="edgeStyle=orthogonalEdgeStyle;rounded=0;orthogonalLoop=1;jettySize=auto;html=1;entryX=0.5;entryY=1;entryDx=0;entryDy=0;dashed=1;dashPattern=8 8;endArrow=open;endFill=0;exitX=0;exitY=0.5;exitDx=0;exitDy=0;" parent="1" source="uFS48-7cLrAhZdvdfBst-45" target="uFS48-7cLrAhZdvdfBst-7" edge="1">
          <mxGeometry relative="1" as="geometry">
            <Array as="points" />
          </mxGeometry>
        </mxCell>
        <mxCell id="uFS48-7cLrAhZdvdfBst-7" value="Página Catálogo Campos" style="ellipse;whiteSpace=wrap;html=1;" parent="1" vertex="1">
          <mxGeometry x="161" y="78" width="120" height="80" as="geometry" />
        </mxCell>
        <mxCell id="uFS48-7cLrAhZdvdfBst-8" value="&lt;span style=&quot;font-size: 24px;&quot;&gt;&lt;b&gt;Criar Reserva - Use Case&lt;/b&gt;&lt;/span&gt;" style="text;html=1;whiteSpace=wrap;overflow=hidden;rounded=0;align=center;" parent="1" vertex="1">
          <mxGeometry x="111" width="1200" height="40" as="geometry" />
        </mxCell>
        <mxCell id="uFS48-7cLrAhZdvdfBst-9" style="edgeStyle=orthogonalEdgeStyle;rounded=0;orthogonalLoop=1;jettySize=auto;html=1;entryX=0.5;entryY=0;entryDx=0;entryDy=0;dashed=1;dashPattern=8 8;endArrow=open;endFill=0;" parent="1" source="uFS48-7cLrAhZdvdfBst-10" target="uFS48-7cLrAhZdvdfBst-45" edge="1">
          <mxGeometry relative="1" as="geometry" />
        </mxCell>
        <mxCell id="uFS48-7cLrAhZdvdfBst-10" value="Ver campo" style="ellipse;whiteSpace=wrap;html=1;" parent="1" vertex="1">
          <mxGeometry x="435" y="80" width="120" height="80" as="geometry" />
        </mxCell>
        <mxCell id="uFS48-7cLrAhZdvdfBst-11" style="edgeStyle=elbowEdgeStyle;rounded=0;orthogonalLoop=1;jettySize=auto;html=1;entryX=0.5;entryY=1;entryDx=0;entryDy=0;endArrow=open;endFill=0;exitX=0.5;exitY=0;exitDx=0;exitDy=0;dashed=1;dashPattern=8 8;" parent="1" source="uFS48-7cLrAhZdvdfBst-60" target="uFS48-7cLrAhZdvdfBst-14" edge="1">
          <mxGeometry relative="1" as="geometry" />
        </mxCell>
        <mxCell id="uFS48-7cLrAhZdvdfBst-12" style="edgeStyle=orthogonalEdgeStyle;rounded=0;orthogonalLoop=1;jettySize=auto;html=1;entryX=0;entryY=0.5;entryDx=0;entryDy=0;endArrow=open;endFill=0;dashed=1;dashPattern=8 8;exitX=1;exitY=0.5;exitDx=0;exitDy=0;" parent="1" source="uFS48-7cLrAhZdvdfBst-40" target="uFS48-7cLrAhZdvdfBst-14" edge="1">
          <mxGeometry relative="1" as="geometry">
            <Array as="points">
              <mxPoint x="321" y="560" />
              <mxPoint x="321" y="410" />
            </Array>
          </mxGeometry>
        </mxCell>
        <mxCell id="uFS48-7cLrAhZdvdfBst-13" style="edgeStyle=orthogonalEdgeStyle;rounded=0;orthogonalLoop=1;jettySize=auto;html=1;entryX=0;entryY=0.5;entryDx=0;entryDy=0;dashed=1;dashPattern=8 8;endArrow=open;endFill=0;exitX=1;exitY=0.5;exitDx=0;exitDy=0;" parent="1" source="uFS48-7cLrAhZdvdfBst-50" target="uFS48-7cLrAhZdvdfBst-14" edge="1">
          <mxGeometry relative="1" as="geometry">
            <mxPoint x="231" y="520" as="sourcePoint" />
          </mxGeometry>
        </mxCell>
        <mxCell id="uFS48-7cLrAhZdvdfBst-14" value="Adicionar campo ao carrinho de reservas" style="ellipse;whiteSpace=wrap;html=1;" parent="1" vertex="1">
          <mxGeometry x="435" y="370" width="120" height="80" as="geometry" />
        </mxCell>
        <mxCell id="uFS48-7cLrAhZdvdfBst-15" style="edgeStyle=orthogonalEdgeStyle;rounded=0;orthogonalLoop=1;jettySize=auto;html=1;entryX=0.5;entryY=0;entryDx=0;entryDy=0;endArrow=open;endFill=0;" parent="1" target="uFS48-7cLrAhZdvdfBst-23" edge="1">
          <mxGeometry relative="1" as="geometry">
            <mxPoint x="751" y="310" as="sourcePoint" />
          </mxGeometry>
        </mxCell>
        <mxCell id="uFS48-7cLrAhZdvdfBst-16" value="&amp;lt;&amp;lt; INCLUDE &amp;gt;&amp;gt;" style="edgeLabel;html=1;align=center;verticalAlign=middle;resizable=0;points=[];" parent="uFS48-7cLrAhZdvdfBst-15" vertex="1" connectable="0">
          <mxGeometry x="0.1117" relative="1" as="geometry">
            <mxPoint as="offset" />
          </mxGeometry>
        </mxCell>
        <mxCell id="uFS48-7cLrAhZdvdfBst-17" value="&amp;lt;&amp;lt;&amp;nbsp; EXTEND &amp;gt;&amp;gt;" style="edgeLabel;html=1;align=center;verticalAlign=middle;resizable=0;points=[];rotation=0;" parent="1" vertex="1" connectable="0">
          <mxGeometry x="491" y="489.99957430565655" as="geometry">
            <mxPoint x="-1.2246467991473532e-16" y="2" as="offset" />
          </mxGeometry>
        </mxCell>
        <mxCell id="uFS48-7cLrAhZdvdfBst-18" style="edgeStyle=orthogonalEdgeStyle;rounded=0;orthogonalLoop=1;jettySize=auto;html=1;entryX=0.5;entryY=0;entryDx=0;entryDy=0;endArrow=open;endFill=0;" parent="1" source="uFS48-7cLrAhZdvdfBst-20" target="uFS48-7cLrAhZdvdfBst-34" edge="1">
          <mxGeometry relative="1" as="geometry" />
        </mxCell>
        <mxCell id="uFS48-7cLrAhZdvdfBst-19" value="&amp;lt;&amp;lt; INCLUDE &amp;gt;&amp;gt;" style="edgeLabel;html=1;align=center;verticalAlign=middle;resizable=0;points=[];" parent="uFS48-7cLrAhZdvdfBst-18" vertex="1" connectable="0">
          <mxGeometry x="-0.266" y="-3" relative="1" as="geometry">
            <mxPoint x="3" y="14" as="offset" />
          </mxGeometry>
        </mxCell>
        <mxCell id="uFS48-7cLrAhZdvdfBst-20" value="Preencher detalhes pagamento&lt;span style=&quot;color: rgba(0, 0, 0, 0); font-family: monospace; font-size: 0px; text-align: start; text-wrap-mode: nowrap;&quot;&gt;%3CmxGraphModel%3E%3Croot%3E%3CmxCell%20id%3D%220%22%2F%3E%3CmxCell%20id%3D%221%22%20parent%3D%220%22%2F%3E%3CmxCell%20id%3D%222%22%20value%3D%22Selecionar%20data%20e%20hora%20de%20inicio%20e%20fim%22%20style%3D%22ellipse%3BwhiteSpace%3Dwrap%3Bhtml%3D1%3B%22%20vertex%3D%221%22%20parent%3D%221%22%3E%3CmxGeometry%20x%3D%22720%22%20y%3D%222260%22%20width%3D%22120%22%20height%3D%2280%22%20as%3D%22geometry%22%2F%3E%3C%2FmxCell%3E%3C%2Froot%3E%3C%2FmxGraphModel%3E&lt;/span&gt;" style="ellipse;whiteSpace=wrap;html=1;" parent="1" vertex="1">
          <mxGeometry x="691" y="530" width="120" height="80" as="geometry" />
        </mxCell>
        <mxCell id="uFS48-7cLrAhZdvdfBst-21" style="edgeStyle=orthogonalEdgeStyle;rounded=0;orthogonalLoop=1;jettySize=auto;html=1;entryX=0.5;entryY=0;entryDx=0;entryDy=0;endArrow=open;endFill=0;" parent="1" source="uFS48-7cLrAhZdvdfBst-23" target="uFS48-7cLrAhZdvdfBst-20" edge="1">
          <mxGeometry relative="1" as="geometry" />
        </mxCell>
        <mxCell id="uFS48-7cLrAhZdvdfBst-22" value="&amp;lt;&amp;lt; INCLUDE &amp;gt;&amp;gt;" style="edgeLabel;html=1;align=center;verticalAlign=middle;resizable=0;points=[];" parent="uFS48-7cLrAhZdvdfBst-21" vertex="1" connectable="0">
          <mxGeometry x="-0.2425" relative="1" as="geometry">
            <mxPoint as="offset" />
          </mxGeometry>
        </mxCell>
        <mxCell id="uFS48-7cLrAhZdvdfBst-23" value="Preencher detalhes cliente" style="ellipse;whiteSpace=wrap;html=1;" parent="1" vertex="1">
          <mxGeometry x="691" y="380" width="120" height="80" as="geometry" />
        </mxCell>
        <mxCell id="uFS48-7cLrAhZdvdfBst-24" value="Validar dados ao avançar próximo passo" style="ellipse;whiteSpace=wrap;html=1;" parent="1" vertex="1">
          <mxGeometry x="931" y="250" width="120" height="80" as="geometry" />
        </mxCell>
        <mxCell id="uFS48-7cLrAhZdvdfBst-25" style="rounded=0;orthogonalLoop=1;jettySize=auto;html=1;exitX=1;exitY=0.3333333333333333;exitDx=0;exitDy=0;exitPerimeter=0;entryX=0;entryY=0;entryDx=0;entryDy=0;startArrow=none;startFill=0;endArrow=none;endFill=0;" parent="1" source="uFS48-7cLrAhZdvdfBst-28" target="uFS48-7cLrAhZdvdfBst-24" edge="1">
          <mxGeometry relative="1" as="geometry" />
        </mxCell>
        <mxCell id="uFS48-7cLrAhZdvdfBst-26" style="rounded=0;orthogonalLoop=1;jettySize=auto;html=1;entryX=0;entryY=0;entryDx=0;entryDy=0;endArrow=open;endFill=0;exitX=1;exitY=1;exitDx=0;exitDy=0;" parent="1" source="uFS48-7cLrAhZdvdfBst-20" target="uFS48-7cLrAhZdvdfBst-35" edge="1">
          <mxGeometry relative="1" as="geometry" />
        </mxCell>
        <mxCell id="uFS48-7cLrAhZdvdfBst-27" style="rounded=0;orthogonalLoop=1;jettySize=auto;html=1;entryX=1;entryY=1;entryDx=0;entryDy=0;endArrow=none;endFill=0;exitX=0;exitY=0.3333333333333333;exitDx=0;exitDy=0;exitPerimeter=0;" parent="1" source="uFS48-7cLrAhZdvdfBst-28" target="uFS48-7cLrAhZdvdfBst-48" edge="1">
          <mxGeometry relative="1" as="geometry" />
        </mxCell>
        <mxCell id="uFS48-7cLrAhZdvdfBst-28" value="Sistema" style="shape=umlActor;verticalLabelPosition=bottom;verticalAlign=top;html=1;outlineConnect=0;" parent="1" vertex="1">
          <mxGeometry x="841" y="180" width="30" height="60" as="geometry" />
        </mxCell>
        <mxCell id="uFS48-7cLrAhZdvdfBst-29" style="edgeStyle=orthogonalEdgeStyle;rounded=0;orthogonalLoop=1;jettySize=auto;html=1;entryX=1;entryY=0.5;entryDx=0;entryDy=0;dashed=1;dashPattern=8 8;endArrow=open;endFill=0;" parent="1" source="uFS48-7cLrAhZdvdfBst-31" target="uFS48-7cLrAhZdvdfBst-24" edge="1">
          <mxGeometry relative="1" as="geometry" />
        </mxCell>
        <mxCell id="uFS48-7cLrAhZdvdfBst-30" value="&amp;lt;&amp;lt; EXTEND &amp;gt;&amp;gt;" style="edgeLabel;html=1;align=center;verticalAlign=middle;resizable=0;points=[];" parent="uFS48-7cLrAhZdvdfBst-29" vertex="1" connectable="0">
          <mxGeometry x="0.1785" y="-1" relative="1" as="geometry">
            <mxPoint x="8" y="-9" as="offset" />
          </mxGeometry>
        </mxCell>
        <mxCell id="uFS48-7cLrAhZdvdfBst-31" value="Dados cliente (Nif, contacto, email) mal preenchidos" style="ellipse;whiteSpace=wrap;html=1;" parent="1" vertex="1">
          <mxGeometry x="1141" y="250" width="120" height="80" as="geometry" />
        </mxCell>
        <mxCell id="uFS48-7cLrAhZdvdfBst-32" style="edgeStyle=orthogonalEdgeStyle;rounded=0;orthogonalLoop=1;jettySize=auto;html=1;entryX=1;entryY=0.5;entryDx=0;entryDy=0;dashed=1;dashPattern=8 8;endArrow=open;endFill=0;" parent="1" source="uFS48-7cLrAhZdvdfBst-33" target="uFS48-7cLrAhZdvdfBst-24" edge="1">
          <mxGeometry relative="1" as="geometry">
            <Array as="points">
              <mxPoint x="1071" y="420" />
              <mxPoint x="1071" y="290" />
            </Array>
          </mxGeometry>
        </mxCell>
        <mxCell id="uFS48-7cLrAhZdvdfBst-33" value="Erro detalhes pagamento" style="ellipse;whiteSpace=wrap;html=1;" parent="1" vertex="1">
          <mxGeometry x="1141" y="385" width="120" height="80" as="geometry" />
        </mxCell>
        <mxCell id="uFS48-7cLrAhZdvdfBst-34" value="Envia email de confirmação de reserva" style="ellipse;whiteSpace=wrap;html=1;" parent="1" vertex="1">
          <mxGeometry x="691" y="680" width="120" height="80" as="geometry" />
        </mxCell>
        <mxCell id="uFS48-7cLrAhZdvdfBst-35" value="Envia feedback" style="ellipse;whiteSpace=wrap;html=1;" parent="1" vertex="1">
          <mxGeometry x="931" y="680" width="120" height="80" as="geometry" />
        </mxCell>
        <mxCell id="uFS48-7cLrAhZdvdfBst-36" value="&amp;lt;&amp;lt; INCLUDE &amp;gt;&amp;gt;" style="edgeLabel;html=1;align=center;verticalAlign=middle;resizable=0;points=[];rotation=33;" parent="1" vertex="1" connectable="0">
          <mxGeometry x="901" y="649.9972413793103" as="geometry" />
        </mxCell>
        <mxCell id="uFS48-7cLrAhZdvdfBst-37" value="Apresenta detalhes do reserva" style="ellipse;whiteSpace=wrap;html=1;" parent="1" vertex="1">
          <mxGeometry x="691" y="250" width="120" height="80" as="geometry" />
        </mxCell>
        <mxCell id="uFS48-7cLrAhZdvdfBst-38" style="edgeStyle=orthogonalEdgeStyle;rounded=0;orthogonalLoop=1;jettySize=auto;html=1;entryX=1;entryY=0.5;entryDx=0;entryDy=0;endArrow=open;endFill=0;exitX=0;exitY=0.5;exitDx=0;exitDy=0;" parent="1" source="uFS48-7cLrAhZdvdfBst-24" target="uFS48-7cLrAhZdvdfBst-23" edge="1">
          <mxGeometry relative="1" as="geometry">
            <mxPoint x="941" y="280" as="sourcePoint" />
            <mxPoint x="821" y="280" as="targetPoint" />
          </mxGeometry>
        </mxCell>
        <mxCell id="uFS48-7cLrAhZdvdfBst-39" style="edgeStyle=orthogonalEdgeStyle;rounded=0;orthogonalLoop=1;jettySize=auto;html=1;entryX=1;entryY=0.5;entryDx=0;entryDy=0;endArrow=open;endFill=0;exitX=0;exitY=0.5;exitDx=0;exitDy=0;" parent="1" source="uFS48-7cLrAhZdvdfBst-24" target="uFS48-7cLrAhZdvdfBst-20" edge="1">
          <mxGeometry relative="1" as="geometry">
            <mxPoint x="941" y="280" as="sourcePoint" />
            <mxPoint x="821" y="430" as="targetPoint" />
          </mxGeometry>
        </mxCell>
        <mxCell id="uFS48-7cLrAhZdvdfBst-40" value="Cancelar carrinho" style="ellipse;whiteSpace=wrap;html=1;" parent="1" vertex="1">
          <mxGeometry x="161" y="520" width="120" height="80" as="geometry" />
        </mxCell>
        <mxCell id="uFS48-7cLrAhZdvdfBst-41" style="edgeStyle=orthogonalEdgeStyle;rounded=0;orthogonalLoop=1;jettySize=auto;html=1;entryX=0;entryY=0.5;entryDx=0;entryDy=0;endArrow=open;endFill=0;" parent="1" source="uFS48-7cLrAhZdvdfBst-45" target="uFS48-7cLrAhZdvdfBst-48" edge="1">
          <mxGeometry relative="1" as="geometry" />
        </mxCell>
        <mxCell id="uFS48-7cLrAhZdvdfBst-42" value="&amp;lt;&amp;lt; INCLUDE &amp;gt;&amp;gt;" style="edgeLabel;html=1;align=center;verticalAlign=middle;resizable=0;points=[];rotation=90;" parent="uFS48-7cLrAhZdvdfBst-41" vertex="1" connectable="0">
          <mxGeometry x="0.1105" y="3" relative="1" as="geometry">
            <mxPoint x="21" y="19" as="offset" />
          </mxGeometry>
        </mxCell>
        <mxCell id="uFS48-7cLrAhZdvdfBst-43" style="edgeStyle=orthogonalEdgeStyle;rounded=0;orthogonalLoop=1;jettySize=auto;html=1;entryX=0.5;entryY=0;entryDx=0;entryDy=0;endArrow=open;endFill=0;" parent="1" source="uFS48-7cLrAhZdvdfBst-45" target="uFS48-7cLrAhZdvdfBst-14" edge="1">
          <mxGeometry relative="1" as="geometry" />
        </mxCell>
        <mxCell id="uFS48-7cLrAhZdvdfBst-44" value="&amp;lt;&amp;lt; INCLUDE &amp;gt;&amp;gt;" style="edgeLabel;html=1;align=center;verticalAlign=middle;resizable=0;points=[];" parent="uFS48-7cLrAhZdvdfBst-43" vertex="1" connectable="0">
          <mxGeometry x="-0.2052" y="3" relative="1" as="geometry">
            <mxPoint as="offset" />
          </mxGeometry>
        </mxCell>
        <mxCell id="uFS48-7cLrAhZdvdfBst-45" value="Seleciona datas reserva" style="ellipse;whiteSpace=wrap;html=1;" parent="1" vertex="1">
          <mxGeometry x="435" y="190" width="120" height="80" as="geometry" />
        </mxCell>
        <mxCell id="uFS48-7cLrAhZdvdfBst-46" style="edgeStyle=orthogonalEdgeStyle;rounded=0;orthogonalLoop=1;jettySize=auto;html=1;entryX=1;entryY=0.5;entryDx=0;entryDy=0;dashed=1;dashPattern=8 8;endArrow=open;endFill=0;exitX=0;exitY=0.5;exitDx=0;exitDy=0;" parent="1" source="uFS48-7cLrAhZdvdfBst-54" target="uFS48-7cLrAhZdvdfBst-48" edge="1">
          <mxGeometry relative="1" as="geometry">
            <Array as="points">
              <mxPoint x="931" y="120" />
            </Array>
          </mxGeometry>
        </mxCell>
        <mxCell id="uFS48-7cLrAhZdvdfBst-47" value="&amp;lt;&amp;lt; EXTEND &amp;gt;&amp;gt;" style="edgeLabel;html=1;align=center;verticalAlign=middle;resizable=0;points=[];rotation=0;" parent="uFS48-7cLrAhZdvdfBst-46" vertex="1" connectable="0">
          <mxGeometry x="-0.175" y="-1" relative="1" as="geometry">
            <mxPoint x="-12" y="-11" as="offset" />
          </mxGeometry>
        </mxCell>
        <mxCell id="uFS48-7cLrAhZdvdfBst-48" value="Verifica data" style="ellipse;whiteSpace=wrap;html=1;" parent="1" vertex="1">
          <mxGeometry x="691" y="80" width="120" height="80" as="geometry" />
        </mxCell>
        <mxCell id="uFS48-7cLrAhZdvdfBst-49" value="&amp;lt;&amp;lt; INCLUDE &amp;gt;&amp;gt;" style="edgeLabel;html=1;align=center;verticalAlign=middle;resizable=0;points=[];rotation=90;" parent="1" vertex="1" connectable="0">
          <mxGeometry x="881" y="424.99894322235014" as="geometry" />
        </mxCell>
        <mxCell id="uFS48-7cLrAhZdvdfBst-50" value="Cancelar reserva específica" style="ellipse;whiteSpace=wrap;html=1;" parent="1" vertex="1">
          <mxGeometry x="161" y="370" width="120" height="80" as="geometry" />
        </mxCell>
        <mxCell id="uFS48-7cLrAhZdvdfBst-51" value="&amp;lt;&amp;lt; EXTEND &amp;gt;&amp;gt;" style="edgeLabel;html=1;align=center;verticalAlign=middle;resizable=0;points=[];" parent="1" vertex="1" connectable="0">
          <mxGeometry x="351.0000000000002" y="399.99666666666644" as="geometry" />
        </mxCell>
        <mxCell id="uFS48-7cLrAhZdvdfBst-52" value="&amp;lt;&amp;lt; EXTEND &amp;gt;&amp;gt;" style="edgeLabel;html=1;align=center;verticalAlign=middle;resizable=0;points=[];rotation=0;" parent="1" vertex="1" connectable="0">
          <mxGeometry x="351.000322532695" y="240.00448275862072" as="geometry" />
        </mxCell>
        <mxCell id="uFS48-7cLrAhZdvdfBst-53" value="&amp;lt;&amp;lt; EXTEND &amp;gt;&amp;gt;" style="edgeLabel;html=1;align=center;verticalAlign=middle;resizable=0;points=[];rotation=0;" parent="1" vertex="1" connectable="0">
          <mxGeometry x="495.000322532695" y="170.00448275862072" as="geometry" />
        </mxCell>
        <mxCell id="uFS48-7cLrAhZdvdfBst-54" value="Data e hora inválida" style="ellipse;whiteSpace=wrap;html=1;" parent="1" vertex="1">
          <mxGeometry x="931" y="78" width="120" height="80" as="geometry" />
        </mxCell>
        <mxCell id="uFS48-7cLrAhZdvdfBst-55" style="rounded=0;orthogonalLoop=1;jettySize=auto;html=1;endArrow=open;endFill=0;exitX=1;exitY=0.5;exitDx=0;exitDy=0;entryX=0;entryY=0.5;entryDx=0;entryDy=0;" parent="1" source="uFS48-7cLrAhZdvdfBst-54" target="uFS48-7cLrAhZdvdfBst-57" edge="1">
          <mxGeometry relative="1" as="geometry">
            <mxPoint x="803" y="608" as="sourcePoint" />
            <mxPoint x="959" y="702" as="targetPoint" />
          </mxGeometry>
        </mxCell>
        <mxCell id="uFS48-7cLrAhZdvdfBst-56" value="&amp;lt;&amp;lt; INCLUDE &amp;gt;&amp;gt;" style="edgeLabel;html=1;align=center;verticalAlign=middle;resizable=0;points=[];" parent="uFS48-7cLrAhZdvdfBst-55" vertex="1" connectable="0">
          <mxGeometry x="0.0001" y="2" relative="1" as="geometry">
            <mxPoint x="-2" y="-9" as="offset" />
          </mxGeometry>
        </mxCell>
        <mxCell id="uFS48-7cLrAhZdvdfBst-57" value="Envia feedback" style="ellipse;whiteSpace=wrap;html=1;" parent="1" vertex="1">
          <mxGeometry x="1141" y="78" width="120" height="80" as="geometry" />
        </mxCell>
        <mxCell id="uFS48-7cLrAhZdvdfBst-58" style="edgeStyle=orthogonalEdgeStyle;rounded=0;orthogonalLoop=1;jettySize=auto;html=1;entryX=0;entryY=0.5;entryDx=0;entryDy=0;endArrow=open;endFill=0;" parent="1" source="uFS48-7cLrAhZdvdfBst-60" target="uFS48-7cLrAhZdvdfBst-37" edge="1">
          <mxGeometry relative="1" as="geometry" />
        </mxCell>
        <mxCell id="uFS48-7cLrAhZdvdfBst-59" value="&amp;lt;&amp;lt; INCLUDE &amp;gt;&amp;gt;" style="edgeLabel;html=1;align=center;verticalAlign=middle;resizable=0;points=[];rotation=90;" parent="uFS48-7cLrAhZdvdfBst-58" vertex="1" connectable="0">
          <mxGeometry x="0.0912" y="-1" relative="1" as="geometry">
            <mxPoint x="-13" as="offset" />
          </mxGeometry>
        </mxCell>
        <mxCell id="uFS48-7cLrAhZdvdfBst-60" value="Confirmar carrinho" style="ellipse;whiteSpace=wrap;html=1;" parent="1" vertex="1">
          <mxGeometry x="435" y="520" width="120" height="80" as="geometry" />
        </mxCell>
        <mxCell id="uFS48-7cLrAhZdvdfBst-61" value="" style="rounded=0;whiteSpace=wrap;html=1;strokeWidth=0;" parent="1" vertex="1">
          <mxGeometry x="111" y="810" width="499" height="510" as="geometry" />
        </mxCell>
        <mxCell id="uFS48-7cLrAhZdvdfBst-62" value="&lt;h1 style=&quot;margin-top: 0px;&quot;&gt;&lt;span style=&quot;font-size: 18px; background-color: initial;&quot;&gt;Fluxo Principal (Sucesso)&lt;/span&gt;&lt;/h1&gt;&lt;div style=&quot;font-size: 14px;&quot;&gt;&lt;div style=&quot;font-size: 15px;&quot;&gt;&lt;font style=&quot;font-size: 15px;&quot;&gt;&lt;b style=&quot;&quot;&gt;Objetivo: &lt;/b&gt;Permite que os clientes visualizem e reservem campo(s) de padel em uma data e horário específico, preencher os dados necessários e receber confirmação de reserva.&lt;/font&gt;&lt;/div&gt;&lt;div style=&quot;font-size: 15px;&quot;&gt;&lt;font style=&quot;font-size: 10px;&quot;&gt;&lt;br&gt;&lt;/font&gt;&lt;/div&gt;&lt;div style=&quot;&quot;&gt;&lt;font style=&quot;font-size: 14px;&quot;&gt;&lt;b style=&quot;&quot;&gt;Ponto 1&lt;/b&gt; - O cliente acede à página de catálogo de campos.&lt;/font&gt;&lt;/div&gt;&lt;div style=&quot;font-size: 6px;&quot;&gt;&lt;font style=&quot;font-size: 6px;&quot;&gt;&lt;br&gt;&lt;/font&gt;&lt;/div&gt;&lt;div style=&quot;&quot;&gt;&lt;font style=&quot;font-size: 14px;&quot;&gt;&lt;b&gt;Ponto 2&lt;/b&gt; - Escolhe a data e o horário de início e fim de reserva&lt;/font&gt;&lt;span style=&quot;background-color: initial;&quot;&gt;.&lt;/span&gt;&lt;/div&gt;&lt;div style=&quot;font-size: 6px;&quot;&gt;&lt;br&gt;&lt;/div&gt;&lt;div&gt;&lt;b&gt;Ponto 3&lt;/b&gt;&amp;nbsp;- Sistema verifica as datas introduzidas.&amp;nbsp;&lt;/div&gt;&lt;div style=&quot;font-size: 6px;&quot;&gt;&lt;font style=&quot;font-size: 6px;&quot;&gt;&lt;br&gt;&lt;/font&gt;&lt;/div&gt;&lt;div style=&quot;&quot;&gt;&lt;font style=&quot;font-size: 14px;&quot;&gt;&lt;b&gt;Ponto 4&lt;/b&gt;&amp;nbsp;- Adiciona o(s) campo(s) ao carrinho&lt;/font&gt;&lt;span style=&quot;background-color: initial;&quot;&gt;.&lt;/span&gt;&lt;/div&gt;&lt;div style=&quot;font-size: 6px;&quot;&gt;&lt;br&gt;&lt;/div&gt;&lt;div&gt;&lt;b&gt;Ponto 5&lt;/b&gt;&amp;nbsp;- O cliente confirma o carrinho.&lt;/div&gt;&lt;div style=&quot;font-size: 6px;&quot;&gt;&lt;br&gt;&lt;/div&gt;&lt;div&gt;&lt;b&gt;Ponto 6&lt;/b&gt;&amp;nbsp;- Preenche os dados do cliente.&lt;/div&gt;&lt;div style=&quot;font-size: 6px;&quot;&gt;&lt;br&gt;&lt;/div&gt;&lt;div&gt;&lt;b&gt;Ponto 7&lt;/b&gt;&amp;nbsp;- O sistema verifica os dados do cliente.&lt;/div&gt;&lt;div style=&quot;font-size: 6px;&quot;&gt;&lt;br&gt;&lt;/div&gt;&lt;div&gt;&lt;b style=&quot;background-color: initial;&quot;&gt;Ponto 8&lt;/b&gt;&lt;span style=&quot;background-color: initial;&quot;&gt;&amp;nbsp;- O cliente preenche os detalhes de pagament&lt;/span&gt;&lt;span style=&quot;background-color: initial;&quot;&gt;o.&lt;/span&gt;&lt;/div&gt;&lt;div style=&quot;font-size: 6px;&quot;&gt;&lt;br&gt;&lt;/div&gt;&lt;div&gt;&lt;b&gt;Ponto 9&lt;/b&gt;&amp;nbsp;- O sistema verifica os dados de pagamento.&lt;/div&gt;&lt;div style=&quot;font-size: 6px;&quot;&gt;&lt;br&gt;&lt;/div&gt;&lt;div&gt;&lt;b style=&quot;background-color: initial;&quot;&gt;Ponto 10&lt;/b&gt;&lt;span style=&quot;background-color: initial;&quot;&gt;&amp;nbsp;- Após o cliente efetuar o pagamento é enviado um email de confirmação de reserva&lt;/span&gt;&lt;span style=&quot;background-color: initial;&quot;&gt;.&lt;/span&gt;&lt;/div&gt;&lt;div style=&quot;font-size: 6px;&quot;&gt;&lt;br&gt;&lt;/div&gt;&lt;div&gt;&lt;b style=&quot;background-color: initial;&quot;&gt;Ponto 11&lt;/b&gt;&lt;span style=&quot;background-color: initial;&quot;&gt;&amp;nbsp;- É enviado um pedido de feedback ao utilizador sobre a experiência.&lt;/span&gt;&lt;span style=&quot;background-color: initial;&quot;&gt;&amp;nbsp;&lt;/span&gt;&lt;/div&gt;&lt;/div&gt;&lt;div style=&quot;font-size: 14px;&quot;&gt;&lt;div style=&quot;font-size: 15px;&quot;&gt;&lt;span style=&quot;white-space: pre;&quot;&gt;&#x9;&lt;/span&gt;&lt;br&gt;&lt;/div&gt;&lt;div style=&quot;font-size: 15px;&quot;&gt;&lt;div&gt;&lt;b&gt;Fim: &lt;/b&gt;O processo de criação de uma reserva é efetuado com sucesso.&lt;/div&gt;&lt;/div&gt;&lt;/div&gt;" style="text;html=1;whiteSpace=wrap;overflow=hidden;rounded=0;" parent="1" vertex="1">
          <mxGeometry x="131" y="830" width="459" height="470" as="geometry" />
        </mxCell>
        <mxCell id="wc0xx6DJ3TPdMIob9Jwo-1" style="edgeStyle=elbowEdgeStyle;rounded=0;orthogonalLoop=1;jettySize=auto;html=1;entryX=1;entryY=0.5;entryDx=0;entryDy=0;exitX=0;exitY=0.5;exitDx=0;exitDy=0;dashed=1;dashPattern=8 8;endArrow=open;endFill=0;" parent="1" source="x4UQtwfPCIkNY9RTQ_ZB-1" target="uFS48-7cLrAhZdvdfBst-48" edge="1">
          <mxGeometry relative="1" as="geometry">
            <Array as="points">
              <mxPoint x="900" y="160" />
            </Array>
          </mxGeometry>
        </mxCell>
        <mxCell id="wc0xx6DJ3TPdMIob9Jwo-2" style="edgeStyle=orthogonalEdgeStyle;rounded=0;orthogonalLoop=1;jettySize=auto;html=1;entryX=0;entryY=0.5;entryDx=0;entryDy=0;endArrow=open;endFill=0;" parent="1" source="x4UQtwfPCIkNY9RTQ_ZB-1" target="uFS48-7cLrAhZdvdfBst-57" edge="1">
          <mxGeometry relative="1" as="geometry" />
        </mxCell>
        <mxCell id="x4UQtwfPCIkNY9RTQ_ZB-1" value="Data e hora existente no carrinho" style="ellipse;whiteSpace=wrap;html=1;" parent="1" vertex="1">
          <mxGeometry x="931" y="164" width="120" height="80" as="geometry" />
        </mxCell>
        <mxCell id="x4UQtwfPCIkNY9RTQ_ZB-2" value="" style="rounded=0;whiteSpace=wrap;html=1;strokeWidth=0;" parent="1" vertex="1">
          <mxGeometry x="111" y="1340" width="499" height="340" as="geometry" />
        </mxCell>
        <mxCell id="x4UQtwfPCIkNY9RTQ_ZB-3" value="&lt;h1 style=&quot;margin-top: 0px;&quot;&gt;&lt;span style=&quot;font-size: 18px; background-color: initial;&quot;&gt;Fluxo Secundário (Datas inseridas inválidas)&lt;/span&gt;&lt;/h1&gt;&lt;div style=&quot;font-size: 14px;&quot;&gt;&lt;div style=&quot;font-size: 15px;&quot;&gt;&lt;font style=&quot;font-size: 15px;&quot;&gt;&lt;b style=&quot;&quot;&gt;Objetivo: &lt;/b&gt;Verificar as datas introduzidas pelo utilizador&lt;/font&gt;&lt;/div&gt;&lt;div style=&quot;font-size: 15px;&quot;&gt;&lt;font style=&quot;font-size: 10px;&quot;&gt;&lt;br&gt;&lt;/font&gt;&lt;/div&gt;&lt;div style=&quot;&quot;&gt;&lt;font style=&quot;font-size: 14px;&quot;&gt;&lt;b style=&quot;&quot;&gt;Ponto 1&lt;/b&gt; - O cliente acede à página de catálogo de campos.&lt;/font&gt;&lt;/div&gt;&lt;div style=&quot;font-size: 6px;&quot;&gt;&lt;font style=&quot;font-size: 6px;&quot;&gt;&lt;br&gt;&lt;/font&gt;&lt;/div&gt;&lt;div style=&quot;&quot;&gt;&lt;font style=&quot;font-size: 14px;&quot;&gt;&lt;b&gt;Ponto 2&lt;/b&gt; - Escolhe a data e o horário de início e fim de reserva.&amp;nbsp;&lt;/font&gt;&lt;/div&gt;&lt;div style=&quot;font-size: 6px;&quot;&gt;&lt;font style=&quot;font-size: 6px;&quot;&gt;&lt;br&gt;&lt;/font&gt;&lt;/div&gt;&lt;div style=&quot;&quot;&gt;&lt;font style=&quot;font-size: 14px;&quot;&gt;&lt;b&gt;Ponto 3&lt;/b&gt; - Sistema verifica as datas introduzidas&lt;/font&gt;&lt;span style=&quot;background-color: initial;&quot;&gt;.&lt;br&gt;&lt;/span&gt;&lt;/div&gt;&lt;div style=&quot;&quot;&gt;&lt;b&gt;&lt;span style=&quot;white-space: pre;&quot;&gt;&#x9;&lt;/span&gt;Ponto 3.1&amp;nbsp;&lt;/b&gt;- A data e hora início da reserva são inferiores à data e &lt;span style=&quot;white-space: pre;&quot;&gt;&#x9;&lt;/span&gt;hora atual.&lt;/div&gt;&lt;div style=&quot;&quot;&gt;&lt;b&gt;&lt;span style=&quot;white-space: pre;&quot;&gt;&#x9;&lt;/span&gt;Ponto 3.2&amp;nbsp;&lt;/b&gt;- A data e hora fim é inferior à data de início.&lt;/div&gt;&lt;div style=&quot;&quot;&gt;&lt;b&gt;&lt;span style=&quot;white-space: pre;&quot;&gt;&#x9;&lt;/span&gt;Ponto 3.3&amp;nbsp;&lt;/b&gt;- O período entre a data de inicio e data de fim é superior &lt;span style=&quot;white-space: pre;&quot;&gt;&#x9;&lt;/span&gt;a 1 ano&lt;span style=&quot;background-color: initial;&quot;&gt;.&amp;nbsp;&lt;/span&gt;&lt;br&gt;&lt;/div&gt;&lt;div style=&quot;&quot;&gt;&lt;span style=&quot;background-color: initial;&quot;&gt;&lt;span style=&quot;white-space: pre;&quot;&gt;&#x9;&lt;/span&gt;&lt;b&gt;Ponto 3.4 &lt;/b&gt;-&amp;nbsp;&lt;/span&gt;&lt;span style=&quot;background-color: initial;&quot;&gt;Sistema envia mensagem de feedback ao utilizador e &lt;span style=&quot;white-space: pre;&quot;&gt;&#x9;&lt;/span&gt;pede para corrigir dados&lt;/span&gt;&lt;span style=&quot;background-color: initial;&quot;&gt;&lt;br&gt;&lt;/span&gt;&lt;/div&gt;&lt;div style=&quot;font-size: 6px;&quot;&gt;&lt;br&gt;&lt;/div&gt;&lt;div&gt;&lt;b&gt;Ponto 4&lt;/b&gt;&amp;nbsp;- Retorna ao ponto 2 do fluxo principal&lt;/div&gt;&lt;/div&gt;" style="text;html=1;whiteSpace=wrap;overflow=hidden;rounded=0;" parent="1" vertex="1">
          <mxGeometry x="131" y="1360" width="459" height="300" as="geometry" />
        </mxCell>
        <mxCell id="x4UQtwfPCIkNY9RTQ_ZB-5" value="" style="rounded=0;whiteSpace=wrap;html=1;strokeWidth=0;" parent="1" vertex="1">
          <mxGeometry x="631.5" y="810" width="608.5" height="350" as="geometry" />
        </mxCell>
        <mxCell id="x4UQtwfPCIkNY9RTQ_ZB-6" value="&lt;h1 style=&quot;margin-top: 0px;&quot;&gt;&lt;span style=&quot;font-size: 18px; background-color: initial;&quot;&gt;Fluxo Secundário (Detalhes cliente incorretos ou incompletos)&lt;/span&gt;&lt;/h1&gt;&lt;div style=&quot;font-size: 14px;&quot;&gt;&lt;div style=&quot;font-size: 15px;&quot;&gt;&lt;font style=&quot;font-size: 15px;&quot;&gt;&lt;b style=&quot;&quot;&gt;Objetivo: &lt;/b&gt;Verificar os detalhes de cliente no momento de finalizar a reserva.&lt;/font&gt;&lt;/div&gt;&lt;div style=&quot;font-size: 15px;&quot;&gt;&lt;font style=&quot;font-size: 10px;&quot;&gt;&lt;br&gt;&lt;/font&gt;&lt;/div&gt;&lt;div style=&quot;&quot;&gt;&lt;div&gt;&lt;b&gt;Ponto 1&lt;/b&gt;&amp;nbsp;- O cliente acede à página de catálogo de campos.&lt;/div&gt;&lt;div style=&quot;font-size: 6px;&quot;&gt;&lt;br&gt;&lt;/div&gt;&lt;div&gt;&lt;b&gt;Ponto 2&lt;/b&gt;&amp;nbsp;- Escolhe a data e o horário de início e fim de reserva&lt;span style=&quot;background-color: initial;&quot;&gt;.&lt;/span&gt;&lt;/div&gt;&lt;div style=&quot;font-size: 6px;&quot;&gt;&lt;br&gt;&lt;/div&gt;&lt;div&gt;&lt;b&gt;Ponto 3&lt;/b&gt;&amp;nbsp;- Sistema verifica as datas introduzidas.&amp;nbsp;&lt;/div&gt;&lt;div style=&quot;font-size: 6px;&quot;&gt;&lt;br&gt;&lt;/div&gt;&lt;div&gt;&lt;b&gt;Ponto 4&lt;/b&gt;&amp;nbsp;- Adiciona o(s) campo(s) ao carrinho&lt;span style=&quot;background-color: initial;&quot;&gt;.&lt;/span&gt;&lt;/div&gt;&lt;div style=&quot;font-size: 6px;&quot;&gt;&lt;br&gt;&lt;/div&gt;&lt;div&gt;&lt;b&gt;Ponto 5&lt;/b&gt;&amp;nbsp;- O cliente confirma o carrinho.&lt;/div&gt;&lt;div style=&quot;font-size: 6px;&quot;&gt;&lt;br&gt;&lt;/div&gt;&lt;div&gt;&lt;b&gt;Ponto 6&lt;/b&gt;&amp;nbsp;- Preenche os dados do cliente.&lt;/div&gt;&lt;div style=&quot;font-size: 6px;&quot;&gt;&lt;br&gt;&lt;/div&gt;&lt;div&gt;&lt;b&gt;Ponto 7&lt;/b&gt;&amp;nbsp;- O sistema verifica os dados do cliente.&lt;/div&gt;&lt;div&gt;&lt;span style=&quot;white-space: pre;&quot;&gt;&#x9;&lt;/span&gt;&lt;b&gt;Ponto 7.1&lt;/b&gt;&amp;nbsp;- Os campos estão incompletos.&lt;br&gt;&lt;/div&gt;&lt;div&gt;&lt;span style=&quot;white-space: pre;&quot;&gt;&#x9;&lt;/span&gt;&lt;b&gt;Ponto 7.2&lt;/b&gt;&amp;nbsp;- O contacto, nome e nif não são válidos&lt;span style=&quot;background-color: initial;&quot;&gt;.&lt;/span&gt;&lt;/div&gt;&lt;div&gt;&lt;span style=&quot;background-color: initial;&quot;&gt;&lt;span style=&quot;white-space: pre;&quot;&gt;&#x9;&lt;/span&gt;&lt;b&gt;Ponto 7.3 &lt;/b&gt;- Sistema envia mensagem de feedback e pede ao utilizador para inserir &lt;span style=&quot;white-space: pre;&quot;&gt;&#x9;&lt;/span&gt;novamente os dados&lt;br&gt;&lt;/span&gt;&lt;/div&gt;&lt;div style=&quot;font-size: 6px;&quot;&gt;&lt;br&gt;&lt;/div&gt;&lt;div&gt;&lt;b&gt;Ponto 8&lt;/b&gt;&amp;nbsp;- Retorna ao ponto 6 do fluxo principal.&lt;/div&gt;&lt;/div&gt;&lt;/div&gt;" style="text;html=1;whiteSpace=wrap;overflow=hidden;rounded=0;" parent="1" vertex="1">
          <mxGeometry x="651.5" y="830" width="568.5" height="310" as="geometry" />
        </mxCell>
        <mxCell id="x4UQtwfPCIkNY9RTQ_ZB-7" value="" style="rounded=0;whiteSpace=wrap;html=1;strokeWidth=0;" parent="1" vertex="1">
          <mxGeometry x="632" y="1180" width="608.5" height="440" as="geometry" />
        </mxCell>
        <mxCell id="x4UQtwfPCIkNY9RTQ_ZB-8" value="&lt;h1 style=&quot;margin-top: 0px;&quot;&gt;&lt;span style=&quot;font-size: 18px; background-color: initial;&quot;&gt;Fluxo Secundário (Detalhes pagamento incorretos ou incompletos)&lt;/span&gt;&lt;/h1&gt;&lt;div style=&quot;font-size: 14px;&quot;&gt;&lt;div style=&quot;font-size: 15px;&quot;&gt;&lt;font style=&quot;font-size: 15px;&quot;&gt;&lt;b style=&quot;&quot;&gt;Objetivo: &lt;/b&gt;Verificar os detalhes de pagamento no momento de finalizar a reserva.&lt;/font&gt;&lt;/div&gt;&lt;div style=&quot;font-size: 15px;&quot;&gt;&lt;font style=&quot;font-size: 10px;&quot;&gt;&lt;br&gt;&lt;/font&gt;&lt;/div&gt;&lt;div style=&quot;&quot;&gt;&lt;div&gt;&lt;b&gt;Ponto 1&lt;/b&gt;&amp;nbsp;- O cliente acede à página de catálogo de campos.&lt;/div&gt;&lt;div style=&quot;font-size: 6px;&quot;&gt;&lt;br&gt;&lt;/div&gt;&lt;div&gt;&lt;b&gt;Ponto 2&lt;/b&gt;&amp;nbsp;- Escolhe a data e o horário de início e fim de reserva&lt;span style=&quot;background-color: initial;&quot;&gt;.&lt;/span&gt;&lt;/div&gt;&lt;div style=&quot;font-size: 6px;&quot;&gt;&lt;br&gt;&lt;/div&gt;&lt;div&gt;&lt;b&gt;Ponto 3&lt;/b&gt;&amp;nbsp;- Sistema verifica as datas introduzidas.&amp;nbsp;&lt;/div&gt;&lt;div style=&quot;font-size: 6px;&quot;&gt;&lt;br&gt;&lt;/div&gt;&lt;div&gt;&lt;b&gt;Ponto 4&lt;/b&gt;&amp;nbsp;- Adiciona o(s) campo(s) ao carrinho&lt;span style=&quot;background-color: initial;&quot;&gt;.&lt;/span&gt;&lt;/div&gt;&lt;div style=&quot;font-size: 6px;&quot;&gt;&lt;br&gt;&lt;/div&gt;&lt;div&gt;&lt;b&gt;Ponto 5&lt;/b&gt;&amp;nbsp;- O cliente confirma o carrinho.&lt;/div&gt;&lt;div style=&quot;font-size: 6px;&quot;&gt;&lt;br&gt;&lt;/div&gt;&lt;div&gt;&lt;b&gt;Ponto 6&lt;/b&gt;&amp;nbsp;- Preenche os dados do cliente.&lt;/div&gt;&lt;div style=&quot;font-size: 6px;&quot;&gt;&lt;br&gt;&lt;/div&gt;&lt;div&gt;&lt;b&gt;Ponto 7&lt;/b&gt;&amp;nbsp;- O sistema verifica os dados do cliente&lt;span style=&quot;background-color: initial;&quot;&gt;.&lt;/span&gt;&lt;br&gt;&lt;/div&gt;&lt;div style=&quot;font-size: 6px;&quot;&gt;&lt;br&gt;&lt;/div&gt;&lt;div&gt;&lt;b style=&quot;background-color: initial;&quot;&gt;Ponto 8&lt;/b&gt;&lt;span style=&quot;background-color: initial;&quot;&gt;&amp;nbsp;- O cliente preenche os detalhes de pagament&lt;/span&gt;&lt;span style=&quot;background-color: initial;&quot;&gt;o.&lt;/span&gt;&lt;/div&gt;&lt;div style=&quot;font-size: 6px;&quot;&gt;&lt;br&gt;&lt;/div&gt;&lt;div&gt;&lt;b&gt;Ponto 9&lt;/b&gt;&amp;nbsp;- O sistema verifica os dados de pagamento.&lt;/div&gt;&lt;div&gt;&lt;span style=&quot;white-space: pre;&quot;&gt;&#x9;&lt;/span&gt;&lt;b&gt;Ponto 9.1&lt;/b&gt;&amp;nbsp;- Os dados de pagamento inseridos são inválidos&lt;span style=&quot;background-color: initial;&quot;&gt;.&lt;/span&gt;&lt;br&gt;&lt;/div&gt;&lt;div&gt;&lt;span style=&quot;background-color: initial;&quot;&gt;&lt;span style=&quot;white-space: pre;&quot;&gt;&#x9;&lt;/span&gt;&lt;b&gt;Ponto 9.2 &lt;/b&gt;- Sistema envia mensagem de feedback e pede ao utilizador para inserir &lt;span style=&quot;white-space: pre;&quot;&gt;&#x9;&lt;/span&gt;novamente os dados.&lt;br&gt;&lt;/span&gt;&lt;/div&gt;&lt;div style=&quot;font-size: 6px;&quot;&gt;&lt;br&gt;&lt;/div&gt;&lt;div&gt;&lt;b style=&quot;background-color: initial;&quot;&gt;Ponto 10&lt;/b&gt;&lt;span style=&quot;background-color: initial;&quot;&gt;&amp;nbsp;- Retorna ao ponto 8 do fluxo principal.&lt;/span&gt;&lt;/div&gt;&lt;/div&gt;&lt;/div&gt;" style="text;html=1;whiteSpace=wrap;overflow=hidden;rounded=0;" parent="1" vertex="1">
          <mxGeometry x="652" y="1200" width="568.5" height="400" as="geometry" />
        </mxCell>
        <mxCell id="x4UQtwfPCIkNY9RTQ_ZB-9" value="&lt;b style=&quot;&quot;&gt;&lt;font style=&quot;font-size: 24px;&quot;&gt;Criar Reserva - Diagrama Sequência&lt;/font&gt;&lt;/b&gt;" style="text;html=1;whiteSpace=wrap;overflow=hidden;rounded=0;align=center;" parent="1" vertex="1">
          <mxGeometry x="1373" width="2647" height="40" as="geometry" />
        </mxCell>
        <mxCell id="x4UQtwfPCIkNY9RTQ_ZB-10" value="Diagrama Sequência" style="shape=umlFrame;whiteSpace=wrap;html=1;pointerEvents=0;recursiveResize=0;container=1;collapsible=0;width=160;" parent="1" vertex="1">
          <mxGeometry x="1373" y="60" width="2677" height="1300" as="geometry" />
        </mxCell>
        <mxCell id="kqpa-Z35UBCHA8HAWeRE-85" value="" style="html=1;verticalAlign=bottom;endArrow=none;curved=0;rounded=0;startArrow=none;startFill=0;endFill=0;dashed=1;" edge="1" parent="x4UQtwfPCIkNY9RTQ_ZB-10" source="kqpa-Z35UBCHA8HAWeRE-116">
          <mxGeometry width="80" relative="1" as="geometry">
            <mxPoint x="979.7599999999998" y="1090" as="sourcePoint" />
            <mxPoint x="979.7599999999998" y="440" as="targetPoint" />
            <mxPoint as="offset" />
          </mxGeometry>
        </mxCell>
        <mxCell id="kqpa-Z35UBCHA8HAWeRE-90" value="&amp;nbsp; Alternativo" style="shape=umlFrame;whiteSpace=wrap;html=1;pointerEvents=0;recursiveResize=0;container=1;collapsible=0;width=170;align=left;fontStyle=1" vertex="1" parent="x4UQtwfPCIkNY9RTQ_ZB-10">
          <mxGeometry x="10" y="640" width="2660" height="650" as="geometry" />
        </mxCell>
        <mxCell id="kqpa-Z35UBCHA8HAWeRE-91" value="Dados Cliente&lt;br&gt;Inválidos" style="text;html=1;align=center;verticalAlign=middle;fontStyle=1" vertex="1" parent="kqpa-Z35UBCHA8HAWeRE-90">
          <mxGeometry width="70" height="20" relative="1" as="geometry">
            <mxPoint x="26" y="63" as="offset" />
          </mxGeometry>
        </mxCell>
        <mxCell id="kqpa-Z35UBCHA8HAWeRE-92" value="Dados Cliente&lt;br&gt;&amp;nbsp; &amp;nbsp; &amp;nbsp; Válidos" style="line;strokeWidth=1;dashed=1;labelPosition=center;verticalLabelPosition=bottom;align=left;verticalAlign=top;spacingLeft=20;spacingTop=15;html=1;whiteSpace=wrap;fontStyle=1" vertex="1" parent="kqpa-Z35UBCHA8HAWeRE-90">
          <mxGeometry x="-3" y="130" width="2663" height="10" as="geometry" />
        </mxCell>
        <mxCell id="kqpa-Z35UBCHA8HAWeRE-107" value="7.3 Envia mensagem de erro" style="html=1;verticalAlign=bottom;endArrow=block;curved=0;rounded=0;" edge="1" parent="kqpa-Z35UBCHA8HAWeRE-90">
          <mxGeometry x="-0.0014" width="80" relative="1" as="geometry">
            <mxPoint x="977" y="30" as="sourcePoint" />
            <mxPoint x="1717" y="30" as="targetPoint" />
            <mxPoint as="offset" />
          </mxGeometry>
        </mxCell>
        <mxCell id="kqpa-Z35UBCHA8HAWeRE-81" value="7.3 Envia mensagem de erro e solicita correções" style="html=1;verticalAlign=bottom;endArrow=none;curved=0;rounded=0;entryX=0;entryY=0;entryDx=0;entryDy=5;entryPerimeter=0;startArrow=open;startFill=0;endFill=0;dashed=1;" edge="1" parent="kqpa-Z35UBCHA8HAWeRE-90" source="x4UQtwfPCIkNY9RTQ_ZB-24">
          <mxGeometry x="-0.2754" width="80" relative="1" as="geometry">
            <mxPoint x="147.5" y="50" as="sourcePoint" />
            <mxPoint x="1719.37" y="50" as="targetPoint" />
            <mxPoint as="offset" />
          </mxGeometry>
        </mxCell>
        <mxCell id="kqpa-Z35UBCHA8HAWeRE-110" value="" style="html=1;verticalAlign=bottom;endArrow=block;curved=0;rounded=0;" edge="1" parent="kqpa-Z35UBCHA8HAWeRE-90">
          <mxGeometry x="-0.2743" width="80" relative="1" as="geometry">
            <mxPoint x="147" y="80" as="sourcePoint" />
            <mxPoint x="1716.5" y="80" as="targetPoint" />
            <mxPoint as="offset" />
          </mxGeometry>
        </mxCell>
        <mxCell id="kqpa-Z35UBCHA8HAWeRE-111" value="7.3 Utilizador corrige dados" style="edgeLabel;html=1;align=center;verticalAlign=middle;resizable=0;points=[];" vertex="1" connectable="0" parent="kqpa-Z35UBCHA8HAWeRE-110">
          <mxGeometry x="-0.1535" y="1" relative="1" as="geometry">
            <mxPoint x="-114" y="-9" as="offset" />
          </mxGeometry>
        </mxCell>
        <mxCell id="kqpa-Z35UBCHA8HAWeRE-115" value="Envia mensagem de sucesso" style="html=1;verticalAlign=bottom;endArrow=block;curved=0;rounded=0;" edge="1" parent="kqpa-Z35UBCHA8HAWeRE-90">
          <mxGeometry x="-0.0014" width="80" relative="1" as="geometry">
            <mxPoint x="975" y="164.5" as="sourcePoint" />
            <mxPoint x="1715" y="164.5" as="targetPoint" />
            <mxPoint as="offset" />
          </mxGeometry>
        </mxCell>
        <mxCell id="kqpa-Z35UBCHA8HAWeRE-116" value="" style="html=1;points=[[0,0,0,0,5],[0,1,0,0,-5],[1,0,0,0,5],[1,1,0,0,-5]];perimeter=orthogonalPerimeter;outlineConnect=0;targetShapes=umlLifeline;portConstraint=eastwest;newEdgeStyle={&quot;curved&quot;:0,&quot;rounded&quot;:0};" vertex="1" parent="kqpa-Z35UBCHA8HAWeRE-90">
          <mxGeometry x="965" y="150" width="10" height="30" as="geometry" />
        </mxCell>
        <mxCell id="kqpa-Z35UBCHA8HAWeRE-112" value="" style="html=1;points=[[0,0,0,0,5],[0,1,0,0,-5],[1,0,0,0,5],[1,1,0,0,-5]];perimeter=orthogonalPerimeter;outlineConnect=0;targetShapes=umlLifeline;portConstraint=eastwest;newEdgeStyle={&quot;curved&quot;:0,&quot;rounded&quot;:0};" vertex="1" parent="kqpa-Z35UBCHA8HAWeRE-90">
          <mxGeometry x="965" y="100" width="10" height="20" as="geometry" />
        </mxCell>
        <mxCell id="kqpa-Z35UBCHA8HAWeRE-119" value="Envia mensagem de sucesso e solicita dados de pagamento" style="html=1;verticalAlign=bottom;endArrow=none;curved=0;rounded=0;entryX=0;entryY=0;entryDx=0;entryDy=5;entryPerimeter=0;startArrow=open;startFill=0;endFill=0;dashed=1;" edge="1" parent="kqpa-Z35UBCHA8HAWeRE-90">
          <mxGeometry x="-0.2754" width="80" relative="1" as="geometry">
            <mxPoint x="157" y="190" as="sourcePoint" />
            <mxPoint x="1717" y="190" as="targetPoint" />
            <mxPoint as="offset" />
          </mxGeometry>
        </mxCell>
        <mxCell id="kqpa-Z35UBCHA8HAWeRE-120" value="" style="html=1;verticalAlign=bottom;endArrow=block;curved=0;rounded=0;" edge="1" parent="kqpa-Z35UBCHA8HAWeRE-90" target="kqpa-Z35UBCHA8HAWeRE-79">
          <mxGeometry x="-0.2743" width="80" relative="1" as="geometry">
            <mxPoint x="151" y="220" as="sourcePoint" />
            <mxPoint x="1720.5" y="220" as="targetPoint" />
            <mxPoint as="offset" />
          </mxGeometry>
        </mxCell>
        <mxCell id="kqpa-Z35UBCHA8HAWeRE-121" value="8. Utilizador preenche dados de pagamento" style="edgeLabel;html=1;align=center;verticalAlign=middle;resizable=0;points=[];" vertex="1" connectable="0" parent="kqpa-Z35UBCHA8HAWeRE-120">
          <mxGeometry x="-0.1535" y="1" relative="1" as="geometry">
            <mxPoint x="-114" y="-9" as="offset" />
          </mxGeometry>
        </mxCell>
        <mxCell id="kqpa-Z35UBCHA8HAWeRE-127" value="&amp;nbsp; Alternativo" style="shape=umlFrame;whiteSpace=wrap;html=1;pointerEvents=0;recursiveResize=0;container=1;collapsible=0;width=170;align=left;fontStyle=1" vertex="1" parent="kqpa-Z35UBCHA8HAWeRE-90">
          <mxGeometry x="10" y="310" width="2640" height="330" as="geometry" />
        </mxCell>
        <mxCell id="kqpa-Z35UBCHA8HAWeRE-129" value="Dados Pagamento&lt;br&gt;&amp;nbsp; &amp;nbsp; &amp;nbsp; &amp;nbsp; &amp;nbsp; Válidos" style="line;strokeWidth=1;dashed=1;labelPosition=center;verticalLabelPosition=bottom;align=left;verticalAlign=top;spacingLeft=20;spacingTop=15;html=1;whiteSpace=wrap;fontStyle=1" vertex="1" parent="kqpa-Z35UBCHA8HAWeRE-127">
          <mxGeometry x="-13" y="120" width="2653" height="10" as="geometry" />
        </mxCell>
        <mxCell id="kqpa-Z35UBCHA8HAWeRE-128" value="Dados Pagamento&lt;br&gt;Inválidos" style="text;html=1;align=center;verticalAlign=middle;fontStyle=1" vertex="1" parent="kqpa-Z35UBCHA8HAWeRE-127">
          <mxGeometry width="70" height="20" relative="1" as="geometry">
            <mxPoint x="26" y="63" as="offset" />
          </mxGeometry>
        </mxCell>
        <mxCell id="kqpa-Z35UBCHA8HAWeRE-143" value="9.2 Envia mensagem de erro e solicita correções" style="html=1;verticalAlign=bottom;endArrow=none;curved=0;rounded=0;entryX=0;entryY=0;entryDx=0;entryDy=5;entryPerimeter=0;startArrow=open;startFill=0;endFill=0;dashed=1;" edge="1" parent="kqpa-Z35UBCHA8HAWeRE-127" source="x4UQtwfPCIkNY9RTQ_ZB-24">
          <mxGeometry x="-0.2754" width="80" relative="1" as="geometry">
            <mxPoint x="137" y="50" as="sourcePoint" />
            <mxPoint x="1708.87" y="50" as="targetPoint" />
            <mxPoint as="offset" />
          </mxGeometry>
        </mxCell>
        <mxCell id="kqpa-Z35UBCHA8HAWeRE-144" value="" style="html=1;verticalAlign=bottom;endArrow=block;curved=0;rounded=0;" edge="1" parent="kqpa-Z35UBCHA8HAWeRE-127" source="x4UQtwfPCIkNY9RTQ_ZB-24">
          <mxGeometry x="-0.2743" width="80" relative="1" as="geometry">
            <mxPoint x="137" y="80" as="sourcePoint" />
            <mxPoint x="1706.5" y="80" as="targetPoint" />
            <mxPoint as="offset" />
          </mxGeometry>
        </mxCell>
        <mxCell id="kqpa-Z35UBCHA8HAWeRE-145" value="9.2 Utilizador corrige dados" style="edgeLabel;html=1;align=center;verticalAlign=middle;resizable=0;points=[];" vertex="1" connectable="0" parent="kqpa-Z35UBCHA8HAWeRE-144">
          <mxGeometry x="-0.1535" y="1" relative="1" as="geometry">
            <mxPoint x="-114" y="-9" as="offset" />
          </mxGeometry>
        </mxCell>
        <mxCell id="kqpa-Z35UBCHA8HAWeRE-162" value="Envia dados de pagamento para o sistema verificar" style="html=1;verticalAlign=bottom;endArrow=block;curved=0;rounded=0;" edge="1" parent="kqpa-Z35UBCHA8HAWeRE-127">
          <mxGeometry x="-0.0014" width="80" relative="1" as="geometry">
            <mxPoint x="1717" y="100" as="sourcePoint" />
            <mxPoint x="2297" y="100" as="targetPoint" />
            <mxPoint as="offset" />
          </mxGeometry>
        </mxCell>
        <mxCell id="kqpa-Z35UBCHA8HAWeRE-163" value="Envia mensagem de sucesso" style="html=1;verticalAlign=bottom;endArrow=none;curved=0;rounded=0;startArrow=open;startFill=0;endFill=0;dashed=1;" edge="1" parent="kqpa-Z35UBCHA8HAWeRE-127">
          <mxGeometry width="80" relative="1" as="geometry">
            <mxPoint x="1715" y="160" as="sourcePoint" />
            <mxPoint x="2297" y="160" as="targetPoint" />
            <mxPoint as="offset" />
          </mxGeometry>
        </mxCell>
        <mxCell id="kqpa-Z35UBCHA8HAWeRE-165" value="Envia dados da reserva" style="html=1;verticalAlign=bottom;endArrow=none;curved=0;rounded=0;entryX=0;entryY=0;entryDx=0;entryDy=5;entryPerimeter=0;startArrow=open;startFill=0;endFill=0;dashed=1;" edge="1" parent="kqpa-Z35UBCHA8HAWeRE-127">
          <mxGeometry width="80" relative="1" as="geometry">
            <mxPoint x="967" y="180.3699999999999" as="sourcePoint" />
            <mxPoint x="1709" y="180" as="targetPoint" />
            <mxPoint as="offset" />
          </mxGeometry>
        </mxCell>
        <mxCell id="kqpa-Z35UBCHA8HAWeRE-166" value="" style="html=1;points=[[0,0,0,0,5],[0,1,0,0,-5],[1,0,0,0,5],[1,1,0,0,-5]];perimeter=orthogonalPerimeter;outlineConnect=0;targetShapes=umlLifeline;portConstraint=eastwest;newEdgeStyle={&quot;curved&quot;:0,&quot;rounded&quot;:0};" vertex="1" parent="kqpa-Z35UBCHA8HAWeRE-127">
          <mxGeometry x="957" y="169" width="10" height="121" as="geometry" />
        </mxCell>
        <mxCell id="kqpa-Z35UBCHA8HAWeRE-167" value="" style="html=1;verticalAlign=bottom;endArrow=block;curved=0;rounded=0;" edge="1" parent="kqpa-Z35UBCHA8HAWeRE-127">
          <mxGeometry x="-0.2743" width="80" relative="1" as="geometry">
            <mxPoint x="967.5" y="220" as="sourcePoint" />
            <mxPoint x="2587" y="220" as="targetPoint" />
            <mxPoint as="offset" />
          </mxGeometry>
        </mxCell>
        <mxCell id="kqpa-Z35UBCHA8HAWeRE-168" value="Cria nova reserva na base de dados" style="edgeLabel;html=1;align=center;verticalAlign=middle;resizable=0;points=[];" vertex="1" connectable="0" parent="kqpa-Z35UBCHA8HAWeRE-167">
          <mxGeometry x="-0.1535" y="1" relative="1" as="geometry">
            <mxPoint x="169" y="-9" as="offset" />
          </mxGeometry>
        </mxCell>
        <mxCell id="kqpa-Z35UBCHA8HAWeRE-172" value="" style="html=1;points=[[0,0,0,0,5],[0,1,0,0,-5],[1,0,0,0,5],[1,1,0,0,-5]];perimeter=orthogonalPerimeter;outlineConnect=0;targetShapes=umlLifeline;portConstraint=eastwest;newEdgeStyle={&quot;curved&quot;:0,&quot;rounded&quot;:0};" vertex="1" parent="kqpa-Z35UBCHA8HAWeRE-127">
          <mxGeometry x="2007" y="270" width="10" height="40" as="geometry" />
        </mxCell>
        <mxCell id="kqpa-Z35UBCHA8HAWeRE-174" value="Envia email de confirmação de reserva" style="html=1;verticalAlign=bottom;endArrow=block;curved=0;rounded=0;" edge="1" parent="kqpa-Z35UBCHA8HAWeRE-127" target="kqpa-Z35UBCHA8HAWeRE-172">
          <mxGeometry x="-0.0014" width="80" relative="1" as="geometry">
            <mxPoint x="967" y="280" as="sourcePoint" />
            <mxPoint x="1707" y="280" as="targetPoint" />
            <mxPoint as="offset" />
          </mxGeometry>
        </mxCell>
        <mxCell id="kqpa-Z35UBCHA8HAWeRE-113" value="11. Redireciona para a página de catálogo, apresenta mensagem de sucesso e solicita feedback da experiência" style="html=1;verticalAlign=bottom;endArrow=none;curved=0;rounded=0;entryX=0;entryY=0;entryDx=0;entryDy=5;entryPerimeter=0;startArrow=open;startFill=0;endFill=0;dashed=1;" edge="1" parent="kqpa-Z35UBCHA8HAWeRE-127" source="x4UQtwfPCIkNY9RTQ_ZB-24">
          <mxGeometry width="80" relative="1" as="geometry">
            <mxPoint x="215" y="270.37" as="sourcePoint" />
            <mxPoint x="957" y="270" as="targetPoint" />
            <mxPoint as="offset" />
          </mxGeometry>
        </mxCell>
        <mxCell id="kqpa-Z35UBCHA8HAWeRE-171" value="10. Envia email de confirmação de reserva" style="html=1;verticalAlign=bottom;endArrow=none;curved=0;rounded=0;startArrow=open;startFill=0;endFill=0;dashed=1;" edge="1" parent="kqpa-Z35UBCHA8HAWeRE-127">
          <mxGeometry x="-0.6404" width="80" relative="1" as="geometry">
            <mxPoint x="141.60999999999967" y="300" as="sourcePoint" />
            <mxPoint x="2007" y="300" as="targetPoint" />
            <mxPoint as="offset" />
          </mxGeometry>
        </mxCell>
        <mxCell id="kqpa-Z35UBCHA8HAWeRE-176" value="Confirma criação de reserva" style="html=1;verticalAlign=bottom;endArrow=none;curved=0;rounded=0;startArrow=open;startFill=0;endFill=0;dashed=1;exitX=0.326;exitY=0.455;exitDx=0;exitDy=0;exitPerimeter=0;" edge="1" parent="kqpa-Z35UBCHA8HAWeRE-127">
          <mxGeometry width="80" relative="1" as="geometry">
            <mxPoint x="967" y="250" as="sourcePoint" />
            <mxPoint x="2588" y="250" as="targetPoint" />
            <mxPoint as="offset" />
          </mxGeometry>
        </mxCell>
        <mxCell id="kqpa-Z35UBCHA8HAWeRE-157" value="Envia dados de pagamento para o sistema verificar" style="html=1;verticalAlign=bottom;endArrow=block;curved=0;rounded=0;" edge="1" parent="kqpa-Z35UBCHA8HAWeRE-90" target="kqpa-Z35UBCHA8HAWeRE-122">
          <mxGeometry x="-0.0014" width="80" relative="1" as="geometry">
            <mxPoint x="1727" y="250" as="sourcePoint" />
            <mxPoint x="2467" y="250" as="targetPoint" />
            <mxPoint as="offset" />
          </mxGeometry>
        </mxCell>
        <mxCell id="kqpa-Z35UBCHA8HAWeRE-5" value="&amp;nbsp; Alternativo" style="shape=umlFrame;whiteSpace=wrap;html=1;pointerEvents=0;recursiveResize=0;container=1;collapsible=0;width=170;align=left;fontStyle=1" vertex="1" parent="x4UQtwfPCIkNY9RTQ_ZB-10">
          <mxGeometry x="10" y="269" width="2660" height="181" as="geometry" />
        </mxCell>
        <mxCell id="kqpa-Z35UBCHA8HAWeRE-7" value="Dados inválidos" style="text;html=1;align=center;verticalAlign=middle;fontStyle=1" vertex="1" parent="kqpa-Z35UBCHA8HAWeRE-5">
          <mxGeometry width="70" height="20" relative="1" as="geometry">
            <mxPoint x="26" y="63" as="offset" />
          </mxGeometry>
        </mxCell>
        <mxCell id="kqpa-Z35UBCHA8HAWeRE-8" value="Dados válidos" style="line;strokeWidth=1;dashed=1;labelPosition=center;verticalLabelPosition=bottom;align=left;verticalAlign=top;spacingLeft=20;spacingTop=15;html=1;whiteSpace=wrap;fontStyle=1" vertex="1" parent="kqpa-Z35UBCHA8HAWeRE-5">
          <mxGeometry y="101" width="2660" height="10" as="geometry" />
        </mxCell>
        <mxCell id="kqpa-Z35UBCHA8HAWeRE-57" value="3.4 Apresenta mensagem de erro" style="html=1;verticalAlign=bottom;endArrow=none;curved=0;rounded=0;exitX=0.399;exitY=0.045;exitDx=0;exitDy=0;exitPerimeter=0;entryX=0;entryY=0;entryDx=0;entryDy=5;entryPerimeter=0;startArrow=open;startFill=0;endFill=0;dashed=1;" edge="1" parent="kqpa-Z35UBCHA8HAWeRE-5">
          <mxGeometry width="80" relative="1" as="geometry">
            <mxPoint x="570.6299999999997" y="27.149999999999864" as="sourcePoint" />
            <mxPoint x="964" y="27" as="targetPoint" />
            <mxPoint as="offset" />
          </mxGeometry>
        </mxCell>
        <mxCell id="kqpa-Z35UBCHA8HAWeRE-58" value="Solicita correções" style="html=1;verticalAlign=bottom;endArrow=none;curved=0;rounded=0;entryX=0;entryY=0;entryDx=0;entryDy=5;entryPerimeter=0;startArrow=open;startFill=0;endFill=0;dashed=1;" edge="1" parent="kqpa-Z35UBCHA8HAWeRE-5" source="x4UQtwfPCIkNY9RTQ_ZB-24">
          <mxGeometry x="-0.0006" width="80" relative="1" as="geometry">
            <mxPoint x="207" y="46" as="sourcePoint" />
            <mxPoint x="557.5" y="46" as="targetPoint" />
            <mxPoint as="offset" />
          </mxGeometry>
        </mxCell>
        <mxCell id="kqpa-Z35UBCHA8HAWeRE-59" value="2. Insere novo dados." style="html=1;verticalAlign=bottom;endArrow=block;curved=0;rounded=0;entryX=0.386;entryY=0.179;entryDx=0;entryDy=0;entryPerimeter=0;" edge="1" parent="kqpa-Z35UBCHA8HAWeRE-5">
          <mxGeometry x="-0.0014" width="80" relative="1" as="geometry">
            <mxPoint x="146.99999999999955" y="71" as="sourcePoint" />
            <mxPoint x="550.0399999999995" y="71" as="targetPoint" />
            <mxPoint as="offset" />
          </mxGeometry>
        </mxCell>
        <mxCell id="kqpa-Z35UBCHA8HAWeRE-60" value="Envia dados para o sistema verificar" style="html=1;verticalAlign=bottom;endArrow=block;curved=0;rounded=0;exitX=1.3;exitY=0.286;exitDx=0;exitDy=0;exitPerimeter=0;entryX=0.681;entryY=0.196;entryDx=0;entryDy=0;entryPerimeter=0;" edge="1" parent="kqpa-Z35UBCHA8HAWeRE-5">
          <mxGeometry x="-0.0014" width="80" relative="1" as="geometry">
            <mxPoint x="567" y="81.48000000000002" as="sourcePoint" />
            <mxPoint x="956.5900000000001" y="81" as="targetPoint" />
            <mxPoint as="offset" />
          </mxGeometry>
        </mxCell>
        <mxCell id="kqpa-Z35UBCHA8HAWeRE-61" value="" style="html=1;points=[[0,0,0,0,5],[0,1,0,0,-5],[1,0,0,0,5],[1,1,0,0,-5]];perimeter=orthogonalPerimeter;outlineConnect=0;targetShapes=umlLifeline;portConstraint=eastwest;newEdgeStyle={&quot;curved&quot;:0,&quot;rounded&quot;:0};" vertex="1" parent="kqpa-Z35UBCHA8HAWeRE-5">
          <mxGeometry x="965" y="131" width="10" height="40" as="geometry" />
        </mxCell>
        <mxCell id="kqpa-Z35UBCHA8HAWeRE-62" value="" style="html=1;points=[[0,0,0,0,5],[0,1,0,0,-5],[1,0,0,0,5],[1,1,0,0,-5]];perimeter=orthogonalPerimeter;outlineConnect=0;targetShapes=umlLifeline;portConstraint=eastwest;newEdgeStyle={&quot;curved&quot;:0,&quot;rounded&quot;:0};" vertex="1" parent="kqpa-Z35UBCHA8HAWeRE-5">
          <mxGeometry x="558" y="150" width="10" height="21" as="geometry" />
        </mxCell>
        <mxCell id="kqpa-Z35UBCHA8HAWeRE-64" value="Apresenta mensagem de sucesso" style="html=1;verticalAlign=bottom;endArrow=none;curved=0;rounded=0;entryX=0;entryY=0;entryDx=0;entryDy=5;entryPerimeter=0;startArrow=open;startFill=0;endFill=0;dashed=1;" edge="1" parent="kqpa-Z35UBCHA8HAWeRE-5" source="kqpa-Z35UBCHA8HAWeRE-62">
          <mxGeometry width="80" relative="1" as="geometry">
            <mxPoint x="577" y="161" as="sourcePoint" />
            <mxPoint x="960.3699999999999" y="161" as="targetPoint" />
            <mxPoint as="offset" />
          </mxGeometry>
        </mxCell>
        <mxCell id="kqpa-Z35UBCHA8HAWeRE-66" value="" style="html=1;points=[[0,0,0,0,5],[0,1,0,0,-5],[1,0,0,0,5],[1,1,0,0,-5]];perimeter=orthogonalPerimeter;outlineConnect=0;targetShapes=umlLifeline;portConstraint=eastwest;newEdgeStyle={&quot;curved&quot;:0,&quot;rounded&quot;:0};" vertex="1" parent="kqpa-Z35UBCHA8HAWeRE-5">
          <mxGeometry x="1317" y="131" width="10" height="40" as="geometry" />
        </mxCell>
        <mxCell id="kqpa-Z35UBCHA8HAWeRE-68" value="4. Adiciona campo ao carrinho com datas escolhidas" style="html=1;verticalAlign=bottom;endArrow=block;curved=0;rounded=0;entryX=0.681;entryY=0.196;entryDx=0;entryDy=0;entryPerimeter=0;" edge="1" parent="kqpa-Z35UBCHA8HAWeRE-5">
          <mxGeometry x="-0.0014" width="80" relative="1" as="geometry">
            <mxPoint x="977" y="141" as="sourcePoint" />
            <mxPoint x="1307" y="141" as="targetPoint" />
            <mxPoint as="offset" />
          </mxGeometry>
        </mxCell>
        <mxCell id="kqpa-Z35UBCHA8HAWeRE-71" value="" style="html=1;verticalAlign=bottom;endArrow=none;curved=0;rounded=0;startArrow=none;startFill=0;endFill=0;dashed=1;" edge="1" parent="kqpa-Z35UBCHA8HAWeRE-5" target="x4UQtwfPCIkNY9RTQ_ZB-15">
          <mxGeometry width="80" relative="1" as="geometry">
            <mxPoint x="562.8799999999999" y="150" as="sourcePoint" />
            <mxPoint x="563.1199999999999" y="109" as="targetPoint" />
            <mxPoint as="offset" />
          </mxGeometry>
        </mxCell>
        <mxCell id="kqpa-Z35UBCHA8HAWeRE-74" value="" style="html=1;verticalAlign=bottom;endArrow=none;curved=0;rounded=0;startArrow=none;startFill=0;endFill=0;dashed=1;" edge="1" parent="kqpa-Z35UBCHA8HAWeRE-5" source="kqpa-Z35UBCHA8HAWeRE-73">
          <mxGeometry width="80" relative="1" as="geometry">
            <mxPoint x="1321.82" y="190" as="sourcePoint" />
            <mxPoint x="1321.82" y="171" as="targetPoint" />
            <mxPoint as="offset" />
          </mxGeometry>
        </mxCell>
        <mxCell id="kqpa-Z35UBCHA8HAWeRE-84" value="" style="html=1;verticalAlign=bottom;endArrow=none;curved=0;rounded=0;startArrow=none;startFill=0;endFill=0;dashed=1;" edge="1" parent="kqpa-Z35UBCHA8HAWeRE-5" source="kqpa-Z35UBCHA8HAWeRE-61">
          <mxGeometry width="80" relative="1" as="geometry">
            <mxPoint x="969.6700000000001" y="140" as="sourcePoint" />
            <mxPoint x="969.79" y="91" as="targetPoint" />
            <mxPoint as="offset" />
          </mxGeometry>
        </mxCell>
        <mxCell id="x4UQtwfPCIkNY9RTQ_ZB-11" value="" style="html=1;verticalAlign=bottom;endArrow=none;curved=0;rounded=0;startArrow=none;startFill=0;endFill=0;dashed=1;" parent="x4UQtwfPCIkNY9RTQ_ZB-10" edge="1">
          <mxGeometry width="80" relative="1" as="geometry">
            <mxPoint x="979.76" y="209" as="sourcePoint" />
            <mxPoint x="980" y="130" as="targetPoint" />
            <mxPoint as="offset" />
          </mxGeometry>
        </mxCell>
        <mxCell id="x4UQtwfPCIkNY9RTQ_ZB-12" value="Página Catálogo de Campos" style="html=1;whiteSpace=wrap;" parent="x4UQtwfPCIkNY9RTQ_ZB-10" vertex="1">
          <mxGeometry x="524" y="67" width="110" height="50" as="geometry" />
        </mxCell>
        <mxCell id="x4UQtwfPCIkNY9RTQ_ZB-13" value="BD" style="strokeWidth=2;html=1;shape=mxgraph.flowchart.database;whiteSpace=wrap;" parent="x4UQtwfPCIkNY9RTQ_ZB-10" vertex="1">
          <mxGeometry x="2587" y="67" width="53" height="53" as="geometry" />
        </mxCell>
        <mxCell id="x4UQtwfPCIkNY9RTQ_ZB-14" value="Utilizador" style="shape=umlActor;verticalLabelPosition=bottom;verticalAlign=top;html=1;" parent="x4UQtwfPCIkNY9RTQ_ZB-10" vertex="1">
          <mxGeometry x="144" y="66" width="17" height="34" as="geometry" />
        </mxCell>
        <mxCell id="x4UQtwfPCIkNY9RTQ_ZB-15" value="" style="html=1;points=[[0,0,0,0,5],[0,1,0,0,-5],[1,0,0,0,5],[1,1,0,0,-5]];perimeter=orthogonalPerimeter;outlineConnect=0;targetShapes=umlLifeline;portConstraint=eastwest;newEdgeStyle={&quot;curved&quot;:0,&quot;rounded&quot;:0};" parent="x4UQtwfPCIkNY9RTQ_ZB-10" vertex="1">
          <mxGeometry x="568" y="160" width="10" height="210" as="geometry" />
        </mxCell>
        <mxCell id="x4UQtwfPCIkNY9RTQ_ZB-16" value="1. Cliente acede à página de catálogo de campos" style="html=1;verticalAlign=bottom;endArrow=block;curved=0;rounded=0;exitX=1;exitY=0;exitDx=0;exitDy=5;exitPerimeter=0;" parent="x4UQtwfPCIkNY9RTQ_ZB-10" edge="1">
          <mxGeometry x="-0.0014" width="80" relative="1" as="geometry">
            <mxPoint x="161.5" y="171" as="sourcePoint" />
            <mxPoint x="565" y="171" as="targetPoint" />
            <mxPoint as="offset" />
          </mxGeometry>
        </mxCell>
        <mxCell id="x4UQtwfPCIkNY9RTQ_ZB-17" value="" style="html=1;points=[[0,0,0,0,5],[0,1,0,0,-5],[1,0,0,0,5],[1,1,0,0,-5]];perimeter=orthogonalPerimeter;outlineConnect=0;targetShapes=umlLifeline;portConstraint=eastwest;newEdgeStyle={&quot;curved&quot;:0,&quot;rounded&quot;:0};" parent="x4UQtwfPCIkNY9RTQ_ZB-10" vertex="1">
          <mxGeometry x="975" y="209" width="10" height="151" as="geometry" />
        </mxCell>
        <mxCell id="x4UQtwfPCIkNY9RTQ_ZB-20" value="Sistema" style="shape=umlActor;verticalLabelPosition=bottom;verticalAlign=top;html=1;" parent="x4UQtwfPCIkNY9RTQ_ZB-10" vertex="1">
          <mxGeometry x="970" y="66" width="17" height="34" as="geometry" />
        </mxCell>
        <mxCell id="x4UQtwfPCIkNY9RTQ_ZB-21" value="" style="html=1;verticalAlign=bottom;endArrow=none;curved=0;rounded=0;startArrow=none;startFill=0;endFill=0;dashed=1;entryX=0.442;entryY=1.016;entryDx=0;entryDy=0;entryPerimeter=0;" parent="x4UQtwfPCIkNY9RTQ_ZB-10" target="x4UQtwfPCIkNY9RTQ_ZB-12" edge="1">
          <mxGeometry width="80" relative="1" as="geometry">
            <mxPoint x="572.76" y="159" as="sourcePoint" />
            <mxPoint x="572.76" y="130" as="targetPoint" />
            <mxPoint as="offset" />
          </mxGeometry>
        </mxCell>
        <mxCell id="x4UQtwfPCIkNY9RTQ_ZB-22" value="" style="html=1;verticalAlign=bottom;endArrow=none;curved=0;rounded=0;startArrow=none;startFill=0;endFill=0;dashed=1;entryX=0.442;entryY=1.016;entryDx=0;entryDy=0;entryPerimeter=0;" parent="x4UQtwfPCIkNY9RTQ_ZB-10" source="x4UQtwfPCIkNY9RTQ_ZB-24" edge="1">
          <mxGeometry width="80" relative="1" as="geometry">
            <mxPoint x="152.15999999999985" y="160" as="sourcePoint" />
            <mxPoint x="152.4000000000001" y="119" as="targetPoint" />
            <mxPoint as="offset" />
          </mxGeometry>
        </mxCell>
        <mxCell id="x4UQtwfPCIkNY9RTQ_ZB-25" value="" style="html=1;verticalAlign=bottom;endArrow=none;curved=0;rounded=0;startArrow=none;startFill=0;endFill=0;dashed=1;" parent="x4UQtwfPCIkNY9RTQ_ZB-10" edge="1">
          <mxGeometry width="80" relative="1" as="geometry">
            <mxPoint x="2612.59" y="1148" as="sourcePoint" />
            <mxPoint x="2612.59" y="120" as="targetPoint" />
            <mxPoint as="offset" />
          </mxGeometry>
        </mxCell>
        <mxCell id="kqpa-Z35UBCHA8HAWeRE-1" value="2. Cliente seleciona data hora de inicio e fim de reserva e seleciona campo&amp;nbsp;" style="html=1;verticalAlign=bottom;endArrow=block;curved=0;rounded=0;entryX=0.386;entryY=0.179;entryDx=0;entryDy=0;entryPerimeter=0;" edge="1" parent="x4UQtwfPCIkNY9RTQ_ZB-10">
          <mxGeometry x="-0.0014" width="80" relative="1" as="geometry">
            <mxPoint x="161.49999999999955" y="200.48000000000002" as="sourcePoint" />
            <mxPoint x="564.5399999999995" y="200.48000000000002" as="targetPoint" />
            <mxPoint as="offset" />
          </mxGeometry>
        </mxCell>
        <mxCell id="kqpa-Z35UBCHA8HAWeRE-2" value="Envia dados para o sistema verificar" style="html=1;verticalAlign=bottom;endArrow=block;curved=0;rounded=0;exitX=1.3;exitY=0.286;exitDx=0;exitDy=0;exitPerimeter=0;entryX=0.681;entryY=0.196;entryDx=0;entryDy=0;entryPerimeter=0;" edge="1" parent="x4UQtwfPCIkNY9RTQ_ZB-10" source="x4UQtwfPCIkNY9RTQ_ZB-15">
          <mxGeometry x="-0.0014" width="80" relative="1" as="geometry">
            <mxPoint x="554.5" y="220" as="sourcePoint" />
            <mxPoint x="970.5900000000001" y="219.51999999999998" as="targetPoint" />
            <mxPoint as="offset" />
          </mxGeometry>
        </mxCell>
        <mxCell id="kqpa-Z35UBCHA8HAWeRE-3" style="edgeStyle=orthogonalEdgeStyle;rounded=0;orthogonalLoop=1;jettySize=auto;html=1;curved=0;exitX=1;exitY=0;exitDx=0;exitDy=5;exitPerimeter=0;" edge="1" parent="x4UQtwfPCIkNY9RTQ_ZB-10">
          <mxGeometry relative="1" as="geometry">
            <mxPoint x="987" y="230" as="sourcePoint" />
            <mxPoint x="987" y="255.03999999999996" as="targetPoint" />
            <Array as="points">
              <mxPoint x="1018" y="230" />
              <mxPoint x="1018" y="255" />
            </Array>
          </mxGeometry>
        </mxCell>
        <mxCell id="kqpa-Z35UBCHA8HAWeRE-4" value="3. VerificaDados()" style="edgeLabel;html=1;align=center;verticalAlign=middle;resizable=0;points=[];" vertex="1" connectable="0" parent="kqpa-Z35UBCHA8HAWeRE-3">
          <mxGeometry x="0.0273" relative="1" as="geometry">
            <mxPoint x="47" y="-1" as="offset" />
          </mxGeometry>
        </mxCell>
        <mxCell id="kqpa-Z35UBCHA8HAWeRE-65" value="Página Carrinho" style="html=1;whiteSpace=wrap;" vertex="1" parent="x4UQtwfPCIkNY9RTQ_ZB-10">
          <mxGeometry x="1277" y="67" width="110" height="50" as="geometry" />
        </mxCell>
        <mxCell id="kqpa-Z35UBCHA8HAWeRE-67" value="" style="html=1;verticalAlign=bottom;endArrow=none;curved=0;rounded=0;startArrow=none;startFill=0;endFill=0;dashed=1;entryX=0.497;entryY=0.092;entryDx=0;entryDy=0;entryPerimeter=0;" edge="1" parent="x4UQtwfPCIkNY9RTQ_ZB-10" source="kqpa-Z35UBCHA8HAWeRE-66" target="x4UQtwfPCIkNY9RTQ_ZB-10">
          <mxGeometry width="80" relative="1" as="geometry">
            <mxPoint x="1331.5500000000002" y="209" as="sourcePoint" />
            <mxPoint x="1331.79" y="130" as="targetPoint" />
            <mxPoint as="offset" />
          </mxGeometry>
        </mxCell>
        <mxCell id="kqpa-Z35UBCHA8HAWeRE-73" value="" style="html=1;points=[[0,0,0,0,5],[0,1,0,0,-5],[1,0,0,0,5],[1,1,0,0,-5]];perimeter=orthogonalPerimeter;outlineConnect=0;targetShapes=umlLifeline;portConstraint=eastwest;newEdgeStyle={&quot;curved&quot;:0,&quot;rounded&quot;:0};" vertex="1" parent="x4UQtwfPCIkNY9RTQ_ZB-10">
          <mxGeometry x="1327" y="470" width="10" height="30" as="geometry" />
        </mxCell>
        <mxCell id="kqpa-Z35UBCHA8HAWeRE-75" value="5. Cliente confirma o carrinho" style="html=1;verticalAlign=bottom;endArrow=block;curved=0;rounded=0;entryX=0.681;entryY=0.196;entryDx=0;entryDy=0;entryPerimeter=0;" edge="1" parent="x4UQtwfPCIkNY9RTQ_ZB-10" source="x4UQtwfPCIkNY9RTQ_ZB-24">
          <mxGeometry x="-0.0014" width="80" relative="1" as="geometry">
            <mxPoint x="997" y="480" as="sourcePoint" />
            <mxPoint x="1327" y="480" as="targetPoint" />
            <mxPoint as="offset" />
          </mxGeometry>
        </mxCell>
        <mxCell id="kqpa-Z35UBCHA8HAWeRE-76" value="Página Finalizar Reserva" style="html=1;whiteSpace=wrap;" vertex="1" parent="x4UQtwfPCIkNY9RTQ_ZB-10">
          <mxGeometry x="1677" y="67" width="110" height="50" as="geometry" />
        </mxCell>
        <mxCell id="kqpa-Z35UBCHA8HAWeRE-79" value="" style="html=1;points=[[0,0,0,0,5],[0,1,0,0,-5],[1,0,0,0,5],[1,1,0,0,-5]];perimeter=orthogonalPerimeter;outlineConnect=0;targetShapes=umlLifeline;portConstraint=eastwest;newEdgeStyle={&quot;curved&quot;:0,&quot;rounded&quot;:0};" vertex="1" parent="x4UQtwfPCIkNY9RTQ_ZB-10">
          <mxGeometry x="1727" y="480" width="10" height="660" as="geometry" />
        </mxCell>
        <mxCell id="kqpa-Z35UBCHA8HAWeRE-80" value="Redireciona utilizador para finalizar reservar com dados do carrinho" style="html=1;verticalAlign=bottom;endArrow=block;curved=0;rounded=0;" edge="1" parent="x4UQtwfPCIkNY9RTQ_ZB-10" target="kqpa-Z35UBCHA8HAWeRE-79">
          <mxGeometry x="-0.0014" width="80" relative="1" as="geometry">
            <mxPoint x="1337" y="489.56999999999994" as="sourcePoint" />
            <mxPoint x="1667" y="489.56999999999994" as="targetPoint" />
            <mxPoint as="offset" />
          </mxGeometry>
        </mxCell>
        <mxCell id="kqpa-Z35UBCHA8HAWeRE-82" value="6. Cliente preenche detalhes cliente (pré preenchido de acordo com os dados de cliente)" style="html=1;verticalAlign=bottom;endArrow=block;curved=0;rounded=0;" edge="1" parent="x4UQtwfPCIkNY9RTQ_ZB-10">
          <mxGeometry x="-0.2743" width="80" relative="1" as="geometry">
            <mxPoint x="157.5" y="549" as="sourcePoint" />
            <mxPoint x="1727" y="549" as="targetPoint" />
            <mxPoint as="offset" />
          </mxGeometry>
        </mxCell>
        <mxCell id="kqpa-Z35UBCHA8HAWeRE-83" value="" style="html=1;verticalAlign=bottom;endArrow=none;curved=0;rounded=0;startArrow=none;startFill=0;endFill=0;dashed=1;entryX=0.647;entryY=0.092;entryDx=0;entryDy=0;entryPerimeter=0;" edge="1" parent="x4UQtwfPCIkNY9RTQ_ZB-10" target="x4UQtwfPCIkNY9RTQ_ZB-10">
          <mxGeometry width="80" relative="1" as="geometry">
            <mxPoint x="1731.5900000000001" y="480" as="sourcePoint" />
            <mxPoint x="1731.38" y="210" as="targetPoint" />
            <mxPoint as="offset" />
          </mxGeometry>
        </mxCell>
        <mxCell id="kqpa-Z35UBCHA8HAWeRE-86" value="" style="html=1;points=[[0,0,0,0,5],[0,1,0,0,-5],[1,0,0,0,5],[1,1,0,0,-5]];perimeter=orthogonalPerimeter;outlineConnect=0;targetShapes=umlLifeline;portConstraint=eastwest;newEdgeStyle={&quot;curved&quot;:0,&quot;rounded&quot;:0};" vertex="1" parent="x4UQtwfPCIkNY9RTQ_ZB-10">
          <mxGeometry x="975" y="571" width="10" height="109" as="geometry" />
        </mxCell>
        <mxCell id="kqpa-Z35UBCHA8HAWeRE-87" value="Envia dados de cliente para o sistema verificar" style="html=1;verticalAlign=bottom;endArrow=none;curved=0;rounded=0;entryX=0;entryY=0;entryDx=0;entryDy=5;entryPerimeter=0;startArrow=open;startFill=0;endFill=0;dashed=1;" edge="1" parent="x4UQtwfPCIkNY9RTQ_ZB-10" source="kqpa-Z35UBCHA8HAWeRE-86">
          <mxGeometry width="80" relative="1" as="geometry">
            <mxPoint x="1333.6299999999997" y="579.7799999999999" as="sourcePoint" />
            <mxPoint x="1727" y="579.63" as="targetPoint" />
            <mxPoint as="offset" />
          </mxGeometry>
        </mxCell>
        <mxCell id="kqpa-Z35UBCHA8HAWeRE-88" style="edgeStyle=orthogonalEdgeStyle;rounded=0;orthogonalLoop=1;jettySize=auto;html=1;curved=0;exitX=1;exitY=0;exitDx=0;exitDy=5;exitPerimeter=0;" edge="1" parent="x4UQtwfPCIkNY9RTQ_ZB-10">
          <mxGeometry relative="1" as="geometry">
            <mxPoint x="987" y="600" as="sourcePoint" />
            <mxPoint x="987" y="625.04" as="targetPoint" />
            <Array as="points">
              <mxPoint x="1018" y="600" />
              <mxPoint x="1018" y="625" />
            </Array>
          </mxGeometry>
        </mxCell>
        <mxCell id="kqpa-Z35UBCHA8HAWeRE-89" value="7. VerificaDados()" style="edgeLabel;html=1;align=center;verticalAlign=middle;resizable=0;points=[];" vertex="1" connectable="0" parent="kqpa-Z35UBCHA8HAWeRE-88">
          <mxGeometry x="0.0273" relative="1" as="geometry">
            <mxPoint x="47" y="-1" as="offset" />
          </mxGeometry>
        </mxCell>
        <mxCell id="kqpa-Z35UBCHA8HAWeRE-109" value="Pede detalhes cliente" style="html=1;verticalAlign=bottom;endArrow=none;curved=0;rounded=0;entryX=0;entryY=0;entryDx=0;entryDy=5;entryPerimeter=0;startArrow=open;startFill=0;endFill=0;dashed=1;" edge="1" parent="x4UQtwfPCIkNY9RTQ_ZB-10">
          <mxGeometry x="-0.2754" width="80" relative="1" as="geometry">
            <mxPoint x="167" y="518" as="sourcePoint" />
            <mxPoint x="1727" y="518.44" as="targetPoint" />
            <mxPoint as="offset" />
          </mxGeometry>
        </mxCell>
        <mxCell id="x4UQtwfPCIkNY9RTQ_ZB-24" value="" style="html=1;points=[[0,0,0,0,5],[0,1,0,0,-5],[1,0,0,0,5],[1,1,0,0,-5]];perimeter=orthogonalPerimeter;outlineConnect=0;targetShapes=umlLifeline;portConstraint=eastwest;newEdgeStyle={&quot;curved&quot;:0,&quot;rounded&quot;:0};" parent="x4UQtwfPCIkNY9RTQ_ZB-10" vertex="1">
          <mxGeometry x="147.5" y="160" width="14.11" height="1110" as="geometry" />
        </mxCell>
        <mxCell id="kqpa-Z35UBCHA8HAWeRE-169" value="" style="html=1;points=[[0,0,0,0,5],[0,1,0,0,-5],[1,0,0,0,5],[1,1,0,0,-5]];perimeter=orthogonalPerimeter;outlineConnect=0;targetShapes=umlLifeline;portConstraint=eastwest;newEdgeStyle={&quot;curved&quot;:0,&quot;rounded&quot;:0};" vertex="1" parent="x4UQtwfPCIkNY9RTQ_ZB-10">
          <mxGeometry x="2608.5" y="1161" width="10" height="49" as="geometry" />
        </mxCell>
        <mxCell id="kqpa-Z35UBCHA8HAWeRE-155" value="" style="html=1;verticalAlign=bottom;endArrow=none;curved=0;rounded=0;startArrow=none;startFill=0;endFill=0;dashed=1;entryX=0.578;entryY=0.071;entryDx=0;entryDy=0;entryPerimeter=0;" edge="1" parent="x4UQtwfPCIkNY9RTQ_ZB-10" source="kqpa-Z35UBCHA8HAWeRE-164">
          <mxGeometry width="80" relative="1" as="geometry">
            <mxPoint x="2321.23" y="468" as="sourcePoint" />
            <mxPoint x="2321.64" y="117" as="targetPoint" />
            <mxPoint as="offset" />
          </mxGeometry>
        </mxCell>
        <mxCell id="kqpa-Z35UBCHA8HAWeRE-123" style="edgeStyle=orthogonalEdgeStyle;rounded=0;orthogonalLoop=1;jettySize=auto;html=1;curved=0;exitX=1;exitY=0;exitDx=0;exitDy=5;exitPerimeter=0;" edge="1" parent="x4UQtwfPCIkNY9RTQ_ZB-10">
          <mxGeometry relative="1" as="geometry">
            <mxPoint x="2327" y="898.06" as="sourcePoint" />
            <mxPoint x="2327" y="923.0999999999999" as="targetPoint" />
            <Array as="points">
              <mxPoint x="2358" y="898.06" />
              <mxPoint x="2358" y="923.06" />
            </Array>
          </mxGeometry>
        </mxCell>
        <mxCell id="kqpa-Z35UBCHA8HAWeRE-124" value="9. VerificaDados()" style="edgeLabel;html=1;align=center;verticalAlign=middle;resizable=0;points=[];" vertex="1" connectable="0" parent="kqpa-Z35UBCHA8HAWeRE-123">
          <mxGeometry x="0.0273" relative="1" as="geometry">
            <mxPoint x="47" y="-1" as="offset" />
          </mxGeometry>
        </mxCell>
        <mxCell id="kqpa-Z35UBCHA8HAWeRE-161" value="" style="html=1;points=[[0,0,0,0,5],[0,1,0,0,-5],[1,0,0,0,5],[1,1,0,0,-5]];perimeter=orthogonalPerimeter;outlineConnect=0;targetShapes=umlLifeline;portConstraint=eastwest;newEdgeStyle={&quot;curved&quot;:0,&quot;rounded&quot;:0};" vertex="1" parent="x4UQtwfPCIkNY9RTQ_ZB-10">
          <mxGeometry x="2317" y="1038" width="10" height="20" as="geometry" />
        </mxCell>
        <mxCell id="kqpa-Z35UBCHA8HAWeRE-164" value="" style="html=1;points=[[0,0,0,0,5],[0,1,0,0,-5],[1,0,0,0,5],[1,1,0,0,-5]];perimeter=orthogonalPerimeter;outlineConnect=0;targetShapes=umlLifeline;portConstraint=eastwest;newEdgeStyle={&quot;curved&quot;:0,&quot;rounded&quot;:0};" vertex="1" parent="x4UQtwfPCIkNY9RTQ_ZB-10">
          <mxGeometry x="2317" y="1097" width="10" height="20" as="geometry" />
        </mxCell>
        <mxCell id="kqpa-Z35UBCHA8HAWeRE-122" value="" style="html=1;points=[[0,0,0,0,5],[0,1,0,0,-5],[1,0,0,0,5],[1,1,0,0,-5]];perimeter=orthogonalPerimeter;outlineConnect=0;targetShapes=umlLifeline;portConstraint=eastwest;newEdgeStyle={&quot;curved&quot;:0,&quot;rounded&quot;:0};" vertex="1" parent="x4UQtwfPCIkNY9RTQ_ZB-10">
          <mxGeometry x="2317" y="868" width="10" height="120" as="geometry" />
        </mxCell>
        <mxCell id="kqpa-Z35UBCHA8HAWeRE-78" value="Servidor de Pagamentos" style="html=1;whiteSpace=wrap;" vertex="1" parent="x4UQtwfPCIkNY9RTQ_ZB-10">
          <mxGeometry x="2267" y="67" width="110" height="50" as="geometry" />
        </mxCell>
        <mxCell id="kqpa-Z35UBCHA8HAWeRE-125" value="9.1. Envia mensagem de erro" style="html=1;verticalAlign=bottom;endArrow=none;curved=0;rounded=0;entryX=0;entryY=0.933;entryDx=0;entryDy=0;entryPerimeter=0;startArrow=open;startFill=0;endFill=0;dashed=1;" edge="1" parent="x4UQtwfPCIkNY9RTQ_ZB-10" source="kqpa-Z35UBCHA8HAWeRE-79" target="kqpa-Z35UBCHA8HAWeRE-122">
          <mxGeometry width="80" relative="1" as="geometry">
            <mxPoint x="1817" y="980.37" as="sourcePoint" />
            <mxPoint x="2559" y="980" as="targetPoint" />
            <mxPoint as="offset" />
          </mxGeometry>
        </mxCell>
        <mxCell id="kqpa-Z35UBCHA8HAWeRE-173" value="" style="html=1;verticalAlign=bottom;endArrow=none;curved=0;rounded=0;startArrow=none;startFill=0;endFill=0;dashed=1;entryX=0.578;entryY=0.071;entryDx=0;entryDy=0;entryPerimeter=0;" edge="1" parent="x4UQtwfPCIkNY9RTQ_ZB-10" source="kqpa-Z35UBCHA8HAWeRE-172">
          <mxGeometry width="80" relative="1" as="geometry">
            <mxPoint x="2032.46" y="1229.9499999999998" as="sourcePoint" />
            <mxPoint x="2031.17" y="117" as="targetPoint" />
            <mxPoint as="offset" />
          </mxGeometry>
        </mxCell>
        <mxCell id="kqpa-Z35UBCHA8HAWeRE-77" value="Servidor de Emails" style="html=1;whiteSpace=wrap;" vertex="1" parent="x4UQtwfPCIkNY9RTQ_ZB-10">
          <mxGeometry x="1977" y="67" width="110" height="50" as="geometry" />
        </mxCell>
        <mxCell id="kqpa-Z35UBCHA8HAWeRE-175" value="Envia dados de cliente para o sistema verificar" style="html=1;verticalAlign=bottom;endArrow=none;curved=0;rounded=0;entryX=0;entryY=0;entryDx=0;entryDy=5;entryPerimeter=0;startArrow=open;startFill=0;endFill=0;dashed=1;" edge="1" parent="1">
          <mxGeometry width="80" relative="1" as="geometry">
            <mxPoint x="2368" y="830.37" as="sourcePoint" />
            <mxPoint x="3110" y="830" as="targetPoint" />
            <mxPoint as="offset" />
          </mxGeometry>
        </mxCell>
      </root>
    </mxGraphModel>
  </diagram>
</mxfile>
